<svg width="59" height="44" viewBox="0 0 59 44" fill="none" xmlns="http://www.w3.org/2000/svg">
<path d="M52.2641 21.3624C52.2641 20.9102 52.2499 20.4607 52.2224 20.0143C53.3313 19.483 56.5537 17.601 56.2279 13.8079C56.2279 13.8079 52.8255 14.7298 51.9964 17.9559C51.7549 16.4326 51.3524 14.9599 50.8084 13.5519C50.9962 13.9751 51.2433 14.4087 51.5699 14.8508C51.5699 14.8508 54.7962 11.0557 52.0942 7.2564C52.0942 7.2564 49.4543 9.79748 50.6439 13.141C50.0427 11.6738 49.2854 10.281 48.3913 8.98088C49.0066 8.06023 50.2987 5.59612 48.5433 3.12813C48.5433 3.12813 46.6691 4.93251 47.1923 7.39159C46.8259 6.9479 46.4431 6.51733 46.0437 6.10093C46.1097 6.07946 46.1748 6.06069 46.2421 6.03672C46.2421 6.03672 45.5263 5.11354 44.2904 4.45226C43.7598 4.00235 43.2081 3.57396 42.6363 3.16992C43.1471 3.54785 43.6406 3.94531 44.1155 4.36155C43.0703 3.8451 41.6861 3.53953 40.0685 4.08514C40.0685 4.08514 42.0757 7.30627 45.9305 6.13749C46.4114 6.66377 46.8647 7.21267 47.2925 7.78054C47.4498 8.28669 47.711 8.8161 48.1136 9.36036C48.1136 9.36036 48.1705 9.29306 48.2599 9.17003C49.5313 11.1582 50.4817 13.353 51.045 15.6883C50.1974 14.4083 48.5973 12.825 45.8662 12.8121C45.8662 12.8121 46.7226 17.0558 51.3653 17.2796C51.5427 18.3818 51.6359 19.5102 51.6359 20.6599C51.6359 23.4445 51.0914 26.1065 50.1062 28.5615C50.1408 26.7207 49.6307 23.9978 46.7469 22.2478C46.7469 22.2478 44.7417 27.1325 49.3624 30.2198C48.4821 31.9679 47.3643 33.5856 46.0548 35.0428C46.8149 33.2062 47.6699 29.6495 44.7915 26.544C44.7915 26.544 40.9913 31.2838 45.1581 35.9854C41.091 40.0218 35.4365 42.5917 29.1473 42.7862C22.8596 42.5917 17.2057 40.0223 13.1383 35.9875C17.3077 31.2852 13.5075 26.544 13.5075 26.544C10.6242 29.6543 11.4868 33.2178 12.2472 35.0519C10.9352 33.5932 9.81496 31.9731 8.93329 30.222C13.558 27.135 11.5515 22.2478 11.5515 22.2478C8.66206 24.0011 8.15568 26.7322 8.19296 28.5725C7.2047 26.1148 6.65778 23.4489 6.65778 20.6599C6.65778 19.5102 6.75161 18.3818 6.92905 17.2796C11.5762 17.0583 12.4325 12.8121 12.4325 12.8121C9.69354 12.825 8.09273 14.4172 7.24641 15.6992C7.80973 13.3583 8.76166 11.1589 10.0362 9.16714C10.1267 9.29168 10.1848 9.36036 10.1848 9.36036C10.5899 8.81262 10.8519 8.27956 11.0088 7.77087C11.4347 7.2057 11.8856 6.66009 12.3642 6.1365C16.2227 7.30766 18.2312 4.08514 18.2312 4.08514C16.6067 3.53759 15.2183 3.84724 14.1715 4.36733C14.6488 3.9488 15.1441 3.54959 15.6571 3.16992C15.0829 3.5755 14.5292 4.00604 13.9965 4.45824C12.7677 5.11857 12.0555 6.03672 12.0555 6.03672C12.1217 6.06009 12.186 6.07887 12.2513 6.09994C11.854 6.51424 11.4729 6.94248 11.1078 7.38383C11.626 4.92863 9.75644 3.12813 9.75644 3.12813C8.00318 5.59359 9.28888 8.05441 9.90471 8.9776C9.02497 10.2569 8.27769 11.6254 7.68096 13.0664C8.8057 9.75937 6.20548 7.2564 6.20548 7.2564C3.50279 11.0557 6.72848 14.8508 6.72848 14.8508C7.03848 14.4312 7.27748 14.0188 7.46149 13.6165C6.93134 15.0023 6.53736 16.4504 6.2997 17.9478C5.4663 14.7286 2.07033 13.8079 2.07033 13.8079C1.74526 17.5971 4.96051 19.4787 6.07249 20.0129C6.04524 20.4593 6.03037 20.9096 6.03037 21.3624C6.03037 33.4429 15.9692 43.3108 28.4847 43.9637L28.488 44.0001C28.7092 44.0001 28.9278 43.9904 29.1473 43.9847C29.3667 43.9904 29.5849 44.0001 29.8062 44.0001L29.8094 43.9637C42.3255 43.3108 52.2641 33.4429 52.2641 21.3624Z" fill="white"/>
<path d="M2.82617 32.8125C5.6391 38.0523 12.111 36.9486 12.111 36.9486C9.11075 31.1059 2.82617 32.8125 2.82617 32.8125Z" fill="white"/>
<mask id="mask0_9783_126" style="mask-type:luminance" maskUnits="userSpaceOnUse" x="2" y="32" width="11" height="6">
<path d="M2.82617 32.8125C5.6391 38.0523 12.111 36.9486 12.111 36.9486C9.11075 31.1059 2.82617 32.8125 2.82617 32.8125Z" fill="white"/>
</mask>
<g mask="url(#mask0_9783_126)">
<path d="M12.111 36.9976H2.82617V37.356H12.111V36.9976Z" fill="white"/>
<path d="M12.111 36.6388H2.82617V36.9976H12.111V36.6388Z" fill="white"/>
<path d="M12.111 36.2806H2.82617V36.6388H12.111V36.2806Z" fill="white"/>
<path d="M12.111 35.9218H2.82617V36.2806H12.111V35.9218Z" fill="white"/>
<path d="M12.111 35.5634H2.82617V35.9218H12.111V35.5634Z" fill="white"/>
<path d="M12.111 35.205H2.82617V35.5634H12.111V35.205Z" fill="white"/>
<path d="M12.111 34.8462H2.82617V35.205H12.111V34.8462Z" fill="white"/>
<path d="M12.111 34.4878H2.82617V34.8462H12.111V34.4878Z" fill="white"/>
<path d="M12.111 34.1293H2.82617V34.4878H12.111V34.1293Z" fill="white"/>
<path d="M12.111 33.7708H2.82617V34.1292H12.111V33.7708Z" fill="white"/>
<path d="M12.111 33.4124H2.82617V33.7709H12.111V33.4124Z" fill="white"/>
<path d="M12.111 33.0536H2.82617V33.4124H12.111V33.0536Z" fill="white"/>
<path d="M12.111 32.6951H2.82617V33.0536H12.111V32.6951Z" fill="white"/>
<path d="M12.111 32.3367H2.82617V32.6951H12.111V32.3367Z" fill="white"/>
</g>
<path d="M8.07978 31.5296C5.47012 26.4462 0 27.9306 0 27.9306C2.44907 32.4904 8.07978 31.5296 8.07978 31.5296Z" fill="white"/>
<mask id="mask1_9783_126" style="mask-type:luminance" maskUnits="userSpaceOnUse" x="0" y="27" width="9" height="5">
<path d="M8.07978 31.5296C5.47012 26.4462 0 27.9306 0 27.9306C2.44907 32.4904 8.07978 31.5296 8.07978 31.5296Z" fill="white"/>
</mask>
<g mask="url(#mask1_9783_126)">
<path d="M8.07978 31.5725H0V31.8841H8.07978V31.5725Z" fill="white"/>
<path d="M8.07978 31.2603H0V31.5725H8.07978V31.2603Z" fill="white"/>
<path d="M8.07978 30.9483H0V31.2603H8.07978V30.9483Z" fill="white"/>
<path d="M8.07978 30.6366H0V30.9483H8.07978V30.6366Z" fill="white"/>
<path d="M8.07978 30.3244H0V30.6366H8.07978V30.3244Z" fill="white"/>
<path d="M8.07978 30.0124H0V30.3244H8.07978V30.0124Z" fill="white"/>
<path d="M8.07978 29.7006H0V30.0124H8.07978V29.7006Z" fill="white"/>
<path d="M8.07978 29.3886H0V29.7006H8.07978V29.3886Z" fill="white"/>
<path d="M8.07978 29.0765H0V29.3886H8.07978V29.0765Z" fill="white"/>
<path d="M8.07978 28.7647H0V29.0765H8.07978V28.7647Z" fill="white"/>
<path d="M8.07978 28.4527H0V28.7647H8.07978V28.4527Z" fill="white"/>
<path d="M8.07978 28.1409H0V28.4527H8.07978V28.1409Z" fill="white"/>
<path d="M8.07978 27.8289H0V28.1409H8.07978V27.8289Z" fill="white"/>
<path d="M8.07978 27.5168H0V27.8289H8.07978V27.5168Z" fill="white"/>
</g>
<path d="M6.40683 26.6584C6.34757 21 0.738281 20.0998 0.738281 20.0998C0.888877 25.2188 6.40683 26.6584 6.40683 26.6584Z" fill="white"/>
<mask id="mask2_9783_126" style="mask-type:luminance" maskUnits="userSpaceOnUse" x="0" y="20" width="7" height="7">
<path d="M6.40683 26.6584C6.34757 21 0.738281 20.0998 0.738281 20.0998C0.888877 25.2188 6.40683 26.6584 6.40683 26.6584Z" fill="white"/>
</mask>
<g mask="url(#mask2_9783_126)">
<path d="M6.40683 26.5878H0.738281V26.6584H6.40683V26.5878Z" fill="white"/>
<path d="M6.40683 26.0609H0.738281V26.5878H6.40683V26.0609Z" fill="white"/>
<path d="M6.40683 25.5344H0.738281V26.0609H6.40683V25.5344Z" fill="white"/>
<path d="M6.40683 25.0079H0.738281V25.5344H6.40683V25.0079Z" fill="white"/>
<path d="M6.40683 24.4811H0.738281V25.0079H6.40683V24.4811Z" fill="white"/>
<path d="M6.40683 23.9546H0.738281V24.4811H6.40683V23.9546Z" fill="white"/>
<path d="M6.40683 23.4281H0.738281V23.9546H6.40683V23.4281Z" fill="white"/>
<path d="M6.40683 22.9013H0.738281V23.4281H6.40683V22.9013Z" fill="white"/>
<path d="M6.40683 22.3748H0.738281V22.9013H6.40683V22.3748Z" fill="white"/>
<path d="M6.40683 21.8483H0.738281V22.3748H6.40683V21.8483Z" fill="white"/>
<path d="M6.40683 21.3215H0.738281V21.8483H6.40683V21.3215Z" fill="white"/>
<path d="M6.40683 20.795H0.738281V21.3215H6.40683V20.795Z" fill="white"/>
<path d="M6.40683 20.2685H0.738281V20.795H6.40683V20.2685Z" fill="white"/>
<path d="M6.40683 20.0998H0.738281V20.2685H6.40683V20.0998Z" fill="white"/>
</g>
<path d="M15.5244 0.114403C12.4281 0.936817 12.3481 4.19276 12.3481 4.19276C15.7872 3.34211 15.5244 0.114403 15.5244 0.114403Z" fill="white"/>
<mask id="mask3_9783_126" style="mask-type:luminance" maskUnits="userSpaceOnUse" x="12" y="0" width="4" height="5">
<path d="M15.5244 0.114403C12.4281 0.936817 12.3481 4.19276 12.3481 4.19276C15.7872 3.34211 15.5244 0.114403 15.5244 0.114403Z" fill="white"/>
</mask>
<g mask="url(#mask3_9783_126)">
<path d="M15.7872 4.14864H12.3481V4.19276H15.7872V4.14864Z" fill="white"/>
<path d="M15.7872 3.82101H12.3481V4.14863H15.7872V3.82101Z" fill="white"/>
<path d="M15.7872 3.49354H12.3481V3.82101H15.7872V3.49354Z" fill="white"/>
<path d="M15.7872 3.16631H12.3481V3.49354H15.7872V3.16631Z" fill="white"/>
<path d="M15.7872 2.83865H12.3481V3.16631H15.7872V2.83865Z" fill="white"/>
<path d="M15.7872 2.51138H12.3481V2.83865H15.7872V2.51138Z" fill="white"/>
<path d="M15.7872 2.18394H12.3481V2.51137H15.7872V2.18394Z" fill="white"/>
<path d="M15.7872 1.85628H12.3481V2.18394H15.7872V1.85628Z" fill="white"/>
<path d="M15.7872 1.52866H12.3481V1.85628H15.7872V1.52866Z" fill="white"/>
<path d="M15.7872 1.20139H12.3481V1.52866H15.7872V1.20139Z" fill="white"/>
<path d="M15.7872 0.874115H12.3481V1.20139H15.7872V0.874115Z" fill="white"/>
<path d="M15.7872 0.546486H12.3481V0.874113H15.7872V0.546486Z" fill="white"/>
<path d="M15.7872 0.218857H12.3481V0.546484H15.7872V0.218857Z" fill="white"/>
<path d="M15.7872 0.114403H12.3481V0.218858H15.7872V0.114403Z" fill="white"/>
</g>
<path d="M6.91265 23.6234C12.1606 22.1312 11.5683 17.1722 11.5683 17.1722C6.84473 18.6027 6.91265 23.6234 6.91265 23.6234Z" fill="white"/>
<mask id="mask4_9783_126" style="mask-type:luminance" maskUnits="userSpaceOnUse" x="6" y="17" width="6" height="7">
<path d="M6.91265 23.6234C12.1606 22.1312 11.5683 17.1722 11.5683 17.1722C6.84473 18.6027 6.91265 23.6234 6.91265 23.6234Z" fill="white"/>
</mask>
<g mask="url(#mask4_9783_126)">
<path d="M12.1606 23.5541H6.84473V23.6234H12.1606V23.5541Z" fill="white"/>
<path d="M12.1606 23.036H6.84473V23.5541H12.1606V23.036Z" fill="white"/>
<path d="M12.1606 22.518H6.84473V23.036H12.1606V22.518Z" fill="white"/>
<path d="M12.1606 22.0002H6.84473V22.518H12.1606V22.0002Z" fill="white"/>
<path d="M12.1606 21.4819H6.84473V22.0002H12.1606V21.4819Z" fill="white"/>
<path d="M12.1606 20.9641H6.84473V21.4819H12.1606V20.9641Z" fill="white"/>
<path d="M12.1606 20.4459H6.84473V20.9641H12.1606V20.4459Z" fill="white"/>
<path d="M12.1606 19.928H6.84473V20.4459H12.1606V19.928Z" fill="white"/>
<path d="M12.1606 19.4102H6.84473V19.928H12.1606V19.4102Z" fill="white"/>
<path d="M12.1606 18.8919H6.84473V19.4102H12.1606V18.8919Z" fill="white"/>
<path d="M12.1606 18.3741H6.84473V18.8918H12.1606V18.3741Z" fill="white"/>
<path d="M12.1606 17.8561H6.84473V18.3741H12.1606V17.8561Z" fill="white"/>
<path d="M12.1606 17.3379H6.84473V17.8561H12.1606V17.3379Z" fill="white"/>
<path d="M12.1606 17.1722H6.84473V17.3379H12.1606V17.1722Z" fill="white"/>
</g>
<path d="M8.81055 11.7908C13.6482 12.52 15.1855 8.30297 15.1855 8.30297C10.7945 7.71767 8.81055 11.7908 8.81055 11.7908Z" fill="white"/>
<mask id="mask5_9783_126" style="mask-type:luminance" maskUnits="userSpaceOnUse" x="8" y="8" width="8" height="4">
<path d="M8.81055 11.7908C13.6482 12.52 15.1855 8.30297 15.1855 8.30297C10.7945 7.71767 8.81055 11.7908 8.81055 11.7908Z" fill="white"/>
</mask>
<g mask="url(#mask5_9783_126)">
<path d="M15.1855 11.8363H8.81055V12.1279H15.1855V11.8363Z" fill="white"/>
<path d="M15.1855 11.545H8.81055V11.8363H15.1855V11.545Z" fill="white"/>
<path d="M15.1855 11.2533H8.81055V11.545H15.1855V11.2533Z" fill="white"/>
<path d="M15.1855 10.9617H8.81055V11.2533H15.1855V10.9617Z" fill="white"/>
<path d="M15.1855 10.6704H8.81055V10.9617H15.1855V10.6704Z" fill="white"/>
<path d="M15.1855 10.3791H8.81055V10.6704H15.1855V10.3791Z" fill="white"/>
<path d="M15.1855 10.0874H8.81055V10.3791H15.1855V10.0874Z" fill="white"/>
<path d="M15.1855 9.79613H8.81055V10.0874H15.1855V9.79613Z" fill="white"/>
<path d="M15.1855 9.50447H8.81055V9.79613H15.1855V9.50447Z" fill="white"/>
<path d="M15.1855 9.21317H8.81055V9.50447H15.1855V9.21317Z" fill="white"/>
<path d="M15.1855 8.92191H8.81055V9.21317H15.1855V8.92191Z" fill="white"/>
<path d="M15.1855 8.62981H8.81055V8.9219H15.1855V8.62981Z" fill="white"/>
<path d="M15.1855 8.33855H8.81055V8.62981H15.1855V8.33855Z" fill="white"/>
<path d="M15.1855 8.04724H8.81055V8.33854H15.1855V8.04724Z" fill="white"/>
</g>
<path d="M22.2189 0.288275C18.5193 -0.958062 16.0435 2.24045 16.0435 2.24045C20.1027 3.68563 22.2189 0.288275 22.2189 0.288275Z" fill="white"/>
<mask id="mask6_9783_126" style="mask-type:luminance" maskUnits="userSpaceOnUse" x="16" y="0" width="7" height="3">
<path d="M22.2189 0.288275C18.5193 -0.958062 16.0435 2.24045 16.0435 2.24045C20.1027 3.68563 22.2189 0.288275 22.2189 0.288275Z" fill="white"/>
</mask>
<g mask="url(#mask6_9783_126)">
<path d="M22.2189 2.57001H16.0435V2.77889H22.2189V2.57001Z" fill="white"/>
<path d="M22.2189 2.3619H16.0435V2.57002H22.2189V2.3619Z" fill="white"/>
<path d="M22.2189 2.15282H16.0435V2.36189H22.2189V2.15282Z" fill="white"/>
<path d="M22.2189 1.94471H16.0435V2.15283H22.2189V1.94471Z" fill="white"/>
<path d="M22.2189 1.7358H16.0435V1.94471H22.2189V1.7358Z" fill="white"/>
<path d="M22.2189 1.52752H16.0435V1.7358H22.2189V1.52752Z" fill="white"/>
<path d="M22.2189 1.31861H16.0435V1.52752H22.2189V1.31861Z" fill="white"/>
<path d="M22.2189 1.10994H16.0435V1.31861H22.2189V1.10994Z" fill="white"/>
<path d="M22.2189 0.901421H16.0435V1.10994H22.2189V0.901421Z" fill="white"/>
<path d="M22.2189 0.692711H16.0435V0.901424H22.2189V0.692711Z" fill="white"/>
<path d="M22.2189 0.48423H16.0435V0.692705H22.2189V0.48423Z" fill="white"/>
<path d="M22.2189 0.275322H16.0435V0.484233H22.2189V0.275322Z" fill="white"/>
<path d="M22.2189 0.067009H16.0435V0.275326H22.2189V0.067009Z" fill="white"/>
<path d="M22.2189 -0.141869H16.0435V0.0670029H22.2189V-0.141869Z" fill="white"/>
</g>
<path d="M46.189 36.9486C46.189 36.9486 52.6608 38.0523 55.4751 32.8125C55.4751 32.8125 49.1878 31.1059 46.189 36.9486Z" fill="white"/>
<mask id="mask7_9783_126" style="mask-type:luminance" maskUnits="userSpaceOnUse" x="46" y="32" width="10" height="6">
<path d="M46.189 36.9486C46.189 36.9486 52.6608 38.0523 55.4751 32.8125C55.4751 32.8125 49.1878 31.1059 46.189 36.9486Z" fill="white"/>
</mask>
<g mask="url(#mask7_9783_126)">
<path d="M55.4751 36.9976H46.189V37.356H55.4751V36.9976Z" fill="white"/>
<path d="M55.4751 36.6388H46.189V36.9976H55.4751V36.6388Z" fill="white"/>
<path d="M55.4751 36.2806H46.189V36.6388H55.4751V36.2806Z" fill="white"/>
<path d="M55.4751 35.9218H46.189V36.2806H55.4751V35.9218Z" fill="white"/>
<path d="M55.4751 35.5634H46.189V35.9218H55.4751V35.5634Z" fill="white"/>
<path d="M55.4751 35.205H46.189V35.5634H55.4751V35.205Z" fill="white"/>
<path d="M55.4751 34.8462H46.189V35.205H55.4751V34.8462Z" fill="white"/>
<path d="M55.4751 34.4878H46.189V34.8462H55.4751V34.4878Z" fill="white"/>
<path d="M55.4751 34.1293H46.189V34.4878H55.4751V34.1293Z" fill="white"/>
<path d="M55.4751 33.7708H46.189V34.1292H55.4751V33.7708Z" fill="white"/>
<path d="M55.4751 33.4124H46.189V33.7709H55.4751V33.4124Z" fill="white"/>
<path d="M55.4751 33.0536H46.189V33.4124H55.4751V33.0536Z" fill="white"/>
<path d="M55.4751 32.6951H46.189V33.0536H55.4751V32.6951Z" fill="white"/>
<path d="M55.4751 32.3367H46.189V32.6951H55.4751V32.3367Z" fill="white"/>
</g>
<path d="M50.2197 31.5296C50.2197 31.5296 55.8516 32.4904 58.3001 27.9306C58.3001 27.9306 52.8307 26.4462 50.2197 31.5296Z" fill="white"/>
<mask id="mask8_9783_126" style="mask-type:luminance" maskUnits="userSpaceOnUse" x="50" y="27" width="9" height="5">
<path d="M50.2197 31.5296C50.2197 31.5296 55.8516 32.4904 58.3001 27.9306C58.3001 27.9306 52.8307 26.4462 50.2197 31.5296Z" fill="white"/>
</mask>
<g mask="url(#mask8_9783_126)">
<path d="M58.3001 31.5725H50.2197V31.8841H58.3001V31.5725Z" fill="white"/>
<path d="M58.3001 31.2603H50.2197V31.5725H58.3001V31.2603Z" fill="white"/>
<path d="M58.3001 30.9483H50.2197V31.2603H58.3001V30.9483Z" fill="white"/>
<path d="M58.3001 30.6366H50.2197V30.9483H58.3001V30.6366Z" fill="white"/>
<path d="M58.3001 30.3244H50.2197V30.6366H58.3001V30.3244Z" fill="white"/>
<path d="M58.3001 30.0124H50.2197V30.3244H58.3001V30.0124Z" fill="white"/>
<path d="M58.3001 29.7006H50.2197V30.0124H58.3001V29.7006Z" fill="white"/>
<path d="M58.3001 29.3886H50.2197V29.7006H58.3001V29.3886Z" fill="white"/>
<path d="M58.3001 29.0765H50.2197V29.3886H58.3001V29.0765Z" fill="white"/>
<path d="M58.3001 28.7647H50.2197V29.0765H58.3001V28.7647Z" fill="white"/>
<path d="M58.3001 28.4527H50.2197V28.7647H58.3001V28.4527Z" fill="white"/>
<path d="M58.3001 28.1409H50.2197V28.4527H58.3001V28.1409Z" fill="white"/>
<path d="M58.3001 27.8289H50.2197V28.1409H58.3001V27.8289Z" fill="white"/>
<path d="M58.3001 27.5168H50.2197V27.8289H58.3001V27.5168Z" fill="white"/>
</g>
<path d="M51.8931 26.6584C51.8931 26.6584 57.411 25.2188 57.5606 20.0998C57.5606 20.0998 51.9531 21 51.8931 26.6584Z" fill="white"/>
<mask id="mask9_9783_126" style="mask-type:luminance" maskUnits="userSpaceOnUse" x="51" y="20" width="7" height="7">
<path d="M51.8931 26.6584C51.8931 26.6584 57.411 25.2188 57.5606 20.0998C57.5606 20.0998 51.9531 21 51.8931 26.6584Z" fill="white"/>
</mask>
<g mask="url(#mask9_9783_126)">
<path d="M57.5606 26.5878H51.8931V26.6584H57.5606V26.5878Z" fill="white"/>
<path d="M57.5606 26.0609H51.8931V26.5878H57.5606V26.0609Z" fill="white"/>
<path d="M57.5606 25.5344H51.8931V26.0609H57.5606V25.5344Z" fill="white"/>
<path d="M57.5606 25.0079H51.8931V25.5344H57.5606V25.0079Z" fill="white"/>
<path d="M57.5606 24.4811H51.8931V25.0079H57.5606V24.4811Z" fill="white"/>
<path d="M57.5606 23.9546H51.8931V24.4811H57.5606V23.9546Z" fill="white"/>
<path d="M57.5606 23.4281H51.8931V23.9546H57.5606V23.4281Z" fill="white"/>
<path d="M57.5606 22.9013H51.8931V23.4281H57.5606V22.9013Z" fill="white"/>
<path d="M57.5606 22.3748H51.8931V22.9013H57.5606V22.3748Z" fill="white"/>
<path d="M57.5606 21.8483H51.8931V22.3748H57.5606V21.8483Z" fill="white"/>
<path d="M57.5606 21.3215H51.8931V21.8483H57.5606V21.3215Z" fill="white"/>
<path d="M57.5606 20.795H51.8931V21.3215H57.5606V20.795Z" fill="white"/>
<path d="M57.5606 20.2685H51.8931V20.795H57.5606V20.2685Z" fill="white"/>
<path d="M57.5606 20.0998H51.8931V20.2685H57.5606V20.0998Z" fill="white"/>
</g>
<path d="M45.9516 4.19278C45.9516 4.19278 45.8717 0.936832 42.7746 0.114418C42.7746 0.114418 42.5126 3.34212 45.9516 4.19278Z" fill="white"/>
<mask id="mask10_9783_126" style="mask-type:luminance" maskUnits="userSpaceOnUse" x="42" y="0" width="4" height="5">
<path d="M45.9516 4.19278C45.9516 4.19278 45.8717 0.936832 42.7746 0.114418C42.7746 0.114418 42.5126 3.34212 45.9516 4.19278Z" fill="white"/>
</mask>
<g mask="url(#mask10_9783_126)">
<path d="M45.9512 4.14865H42.5122V4.19278H45.9512V4.14865Z" fill="white"/>
<path d="M45.9512 3.82102H42.5122V4.14865H45.9512V3.82102Z" fill="white"/>
<path d="M45.9512 3.49355H42.5122V3.82102H45.9512V3.49355Z" fill="white"/>
<path d="M45.9512 3.16633H42.5122V3.49356H45.9512V3.16633Z" fill="white"/>
<path d="M45.9512 2.83866H42.5122V3.16633H45.9512V2.83866Z" fill="white"/>
<path d="M45.9512 2.51139H42.5122V2.83866H45.9512V2.51139Z" fill="white"/>
<path d="M45.9512 2.18396H42.5122V2.51139H45.9512V2.18396Z" fill="white"/>
<path d="M45.9512 1.85629H42.5122V2.18396H45.9512V1.85629Z" fill="white"/>
<path d="M45.9512 1.52867H42.5122V1.8563H45.9512V1.52867Z" fill="white"/>
<path d="M45.9512 1.2014H42.5122V1.52867H45.9512V1.2014Z" fill="white"/>
<path d="M45.9512 0.87413H42.5122V1.2014H45.9512V0.87413Z" fill="white"/>
<path d="M45.9512 0.546501H42.5122V0.874128H45.9512V0.546501Z" fill="white"/>
<path d="M45.9512 0.218872H42.5122V0.546499H45.9512V0.218872Z" fill="white"/>
<path d="M45.9512 0.114418H42.5122V0.218874H45.9512V0.114418Z" fill="white"/>
</g>
<path d="M51.3888 23.6233C51.3888 23.6233 51.4558 18.6026 46.7314 17.1721C46.7314 17.1721 46.1399 22.1311 51.3888 23.6233Z" fill="white"/>
<mask id="mask11_9783_126" style="mask-type:luminance" maskUnits="userSpaceOnUse" x="46" y="17" width="6" height="7">
<path d="M51.3888 23.6233C51.3888 23.6233 51.4558 18.6026 46.7314 17.1721C46.7314 17.1721 46.1399 22.1311 51.3888 23.6233Z" fill="white"/>
</mask>
<g mask="url(#mask11_9783_126)">
<path d="M51.456 23.554H46.1401V23.6233H51.456V23.554Z" fill="white"/>
<path d="M51.456 23.0359H46.1401V23.554H51.456V23.0359Z" fill="white"/>
<path d="M51.456 22.5179H46.1401V23.0359H51.456V22.5179Z" fill="white"/>
<path d="M51.456 22.0002H46.1401V22.5179H51.456V22.0002Z" fill="white"/>
<path d="M51.456 21.4818H46.1401V22.0002H51.456V21.4818Z" fill="white"/>
<path d="M51.456 20.964H46.1401V21.4818H51.456V20.964Z" fill="white"/>
<path d="M51.456 20.4459H46.1401V20.964H51.456V20.4459Z" fill="white"/>
<path d="M51.456 19.9279H46.1401V20.4459H51.456V19.9279Z" fill="white"/>
<path d="M51.456 19.4101H46.1401V19.9279H51.456V19.4101Z" fill="white"/>
<path d="M51.456 18.8918H46.1401V19.4101H51.456V18.8918Z" fill="white"/>
<path d="M51.456 18.374H46.1401V18.8918H51.456V18.374Z" fill="white"/>
<path d="M51.456 17.856H46.1401V18.374H51.456V17.856Z" fill="white"/>
<path d="M51.456 17.3379H46.1401V17.856H51.456V17.3379Z" fill="white"/>
<path d="M51.456 17.1721H46.1401V17.3379H51.456V17.1721Z" fill="white"/>
</g>
<path d="M49.4893 11.7908C49.4893 11.7908 47.5045 7.71767 43.1138 8.30297C43.1138 8.30297 44.6516 12.52 49.4893 11.7908Z" fill="white"/>
<mask id="mask12_9783_126" style="mask-type:luminance" maskUnits="userSpaceOnUse" x="43" y="8" width="7" height="4">
<path d="M49.4893 11.7908C49.4893 11.7908 47.5045 7.71767 43.1138 8.30297C43.1138 8.30297 44.6516 12.52 49.4893 11.7908Z" fill="white"/>
</mask>
<g mask="url(#mask12_9783_126)">
<path d="M49.4893 11.8363H43.1138V12.1279H49.4893V11.8363Z" fill="white"/>
<path d="M49.4893 11.545H43.1138V11.8363H49.4893V11.545Z" fill="white"/>
<path d="M49.4893 11.2533H43.1138V11.545H49.4893V11.2533Z" fill="white"/>
<path d="M49.4893 10.9617H43.1138V11.2533H49.4893V10.9617Z" fill="white"/>
<path d="M49.4893 10.6704H43.1138V10.9617H49.4893V10.6704Z" fill="white"/>
<path d="M49.4893 10.3791H43.1138V10.6704H49.4893V10.3791Z" fill="white"/>
<path d="M49.4893 10.0874H43.1138V10.3791H49.4893V10.0874Z" fill="white"/>
<path d="M49.4893 9.79613H43.1138V10.0874H49.4893V9.79613Z" fill="white"/>
<path d="M49.4893 9.50447H43.1138V9.79613H49.4893V9.50447Z" fill="white"/>
<path d="M49.4893 9.21317H43.1138V9.50447H49.4893V9.21317Z" fill="white"/>
<path d="M49.4893 8.92191H43.1138V9.21317H49.4893V8.92191Z" fill="white"/>
<path d="M49.4893 8.62981H43.1138V8.9219H49.4893V8.62981Z" fill="white"/>
<path d="M49.4893 8.33855H43.1138V8.62981H49.4893V8.33855Z" fill="white"/>
<path d="M49.4893 8.04724H43.1138V8.33854H49.4893V8.04724Z" fill="white"/>
</g>
<path d="M42.256 2.24045C42.256 2.24045 39.7801 -0.958062 36.0811 0.288275C36.0811 0.288275 38.1967 3.68563 42.256 2.24045Z" fill="white"/>
<mask id="mask13_9783_126" style="mask-type:luminance" maskUnits="userSpaceOnUse" x="36" y="0" width="7" height="3">
<path d="M42.256 2.24045C42.256 2.24045 39.7801 -0.958062 36.0811 0.288275C36.0811 0.288275 38.1967 3.68563 42.256 2.24045Z" fill="white"/>
</mask>
<g mask="url(#mask13_9783_126)">
<path d="M42.256 2.57001H36.0811V2.77889H42.256V2.57001Z" fill="white"/>
<path d="M42.256 2.3619H36.0811V2.57002H42.256V2.3619Z" fill="white"/>
<path d="M42.256 2.15282H36.0811V2.36189H42.256V2.15282Z" fill="white"/>
<path d="M42.256 1.94471H36.0811V2.15283H42.256V1.94471Z" fill="white"/>
<path d="M42.256 1.7358H36.0811V1.94471H42.256V1.7358Z" fill="white"/>
<path d="M42.256 1.52752H36.0811V1.7358H42.256V1.52752Z" fill="white"/>
<path d="M42.256 1.31861H36.0811V1.52752H42.256V1.31861Z" fill="white"/>
<path d="M42.256 1.10994H36.0811V1.31861H42.256V1.10994Z" fill="white"/>
<path d="M42.256 0.901421H36.0811V1.10994H42.256V0.901421Z" fill="white"/>
<path d="M42.256 0.692711H36.0811V0.901424H42.256V0.692711Z" fill="white"/>
<path d="M42.256 0.48423H36.0811V0.692705H42.256V0.48423Z" fill="white"/>
<path d="M42.256 0.275322H36.0811V0.484233H42.256V0.275322Z" fill="white"/>
<path d="M42.256 0.067009H36.0811V0.275326H42.256V0.067009Z" fill="white"/>
<path d="M42.256 -0.141869H36.0811V0.0670029H42.256V-0.141869Z" fill="white"/>
</g>
<path d="M29.1507 29.903L30.1892 32.0112L32.5113 32.3493L30.831 33.9903L31.2277 36.3074L29.1507 35.2134L27.0737 36.3074L27.4704 33.9903L25.79 32.3493L28.1122 32.0112L29.1507 29.903Z" fill="white"/>
<path d="M36.5368 29.9031L37.2379 31.3267L38.8059 31.5549L37.6713 32.663L37.9392 34.2275L36.5368 33.4888L35.1343 34.2275L35.4022 32.663L34.2676 31.5549L35.8355 31.3267L36.5368 29.9031Z" fill="white"/>
<path d="M21.9142 29.9031L22.6154 31.3267L24.1833 31.5549L23.0487 32.663L23.3166 34.2275L21.9142 33.4888L20.5117 34.2275L20.7796 32.663L19.645 31.5549L21.213 31.3267L21.9142 29.9031Z" fill="white"/>
<path d="M26.5346 25.2287V24.193C27.1072 24.1753 27.5497 24.0603 27.862 23.8478C28.1744 23.6177 28.3913 23.2902 28.5127 22.8653C28.6515 22.4404 28.7209 21.9181 28.7209 21.2985L28.6689 9.08312L25.5977 11.0748L24.999 10.1719L30.2305 6.21516H31.2196L31.2456 22.0952C31.2456 22.4492 31.2369 22.7945 31.2196 23.1308C31.2196 23.4672 31.2022 23.7593 31.1675 24.0071C31.5145 23.9894 31.8703 23.9717 32.2346 23.954C32.6164 23.9363 32.9721 23.9186 33.3018 23.9009V25.2287H26.5346Z" fill="white"/>
</svg>
