<svg width="55" height="44" viewBox="0 0 55 44" fill="none" xmlns="http://www.w3.org/2000/svg">
<path d="M43.7162 0.333403C43.0847 0.908607 42.4461 1.90469 42.2617 2.59914C42.2333 2.72541 42.1694 2.94988 42.1339 3.09017C42.0914 3.23748 42.063 3.74955 42.063 4.23356C42.063 4.71758 42.0914 5.22965 42.1339 5.36994C42.1694 5.51725 42.2333 5.74874 42.2687 5.88201C42.4603 6.61856 43.2975 7.86717 43.9645 8.4073L44.1915 8.59669L44.4966 8.33014C44.8088 8.04955 45.3764 7.38316 45.5112 7.14466C45.5538 7.06749 45.6389 6.90616 45.7028 6.79392C45.8589 6.51334 46.0008 6.16962 46.1569 5.70665C46.3556 5.11741 46.3343 3.39882 46.1214 2.71839C45.7738 1.61007 44.9507 0.438624 44.2128 0.00371343C44.1632 -0.0243453 43.9574 0.108934 43.7162 0.333403Z" fill="white"/>
<path d="M10.4044 0.319358C9.88646 0.810386 9.55298 1.26634 9.21951 1.95378C8.83637 2.74644 8.75833 3.12523 8.75833 4.26862C8.75123 5.17352 8.77961 5.39097 8.91442 5.80484C9.21242 6.71675 9.68779 7.50239 10.298 8.08461C10.5108 8.29505 10.7379 8.49146 10.7946 8.52653C10.8727 8.56862 11.0288 8.45639 11.3622 8.13371C12.3059 7.20076 12.8522 6.07139 12.9729 4.81577C13.0935 3.48999 12.8097 2.32556 12.0931 1.22425C11.7951 0.761283 11.043 0.024742 10.8656 0.024742C10.7875 0.024742 10.5818 0.158021 10.4044 0.319358Z" fill="white"/>
<path d="M3.79202 7.05345C3.03283 8.68086 2.97607 10.2802 3.62883 11.9707C4.22482 13.4929 5.75028 14.938 7.34669 15.4781C7.6305 15.5763 7.65178 15.5693 7.7795 15.429C7.92849 15.2676 8.24068 14.5381 8.41806 13.9208C8.58125 13.3596 8.58125 11.5008 8.41806 10.9676C8.11297 9.97156 7.87883 9.50158 7.32541 8.75802C6.70813 7.93029 5.97733 7.34807 4.99819 6.89913C4.04035 6.46422 4.06873 6.45721 3.79202 7.05345Z" fill="white"/>
<path d="M50.5269 6.68175C48.8595 7.278 47.4405 8.6669 46.8516 10.2803C46.5394 11.1361 46.5039 11.3465 46.5039 12.4408C46.5039 13.5982 46.5465 13.8508 46.9225 14.7977C47.1638 15.401 47.3411 15.6114 47.554 15.5273C48.5828 15.1415 49.4058 14.6294 50.0586 13.97C51.9459 12.062 52.3929 9.26315 51.1796 6.89921C51.0803 6.70279 50.9739 6.54847 50.9455 6.54847C50.9171 6.55549 50.7326 6.6116 50.5269 6.68175Z" fill="white"/>
<path d="M26.5951 7.98654C26.5384 8.00056 26.2475 8.04967 25.9566 8.09176C25.0839 8.23205 23.899 8.56174 23.2604 8.84233C22.0968 9.3544 21.6711 9.5929 20.7062 10.2873C19.2517 11.3396 17.7546 13.0722 17.038 14.5453C16.4278 15.8149 16.0872 16.825 15.8673 18.0526C15.7396 18.7611 15.7396 21.5038 15.8673 22.1211C16.073 23.1102 16.2788 23.8537 16.4562 24.2606C16.4916 24.3377 16.5839 24.5762 16.669 24.7867C17.0522 25.7758 17.8681 27.0735 18.7621 28.0906C19.947 29.4515 21.7421 30.7141 23.4023 31.3454C23.5797 31.4085 23.7784 31.4927 23.8422 31.5278C23.9061 31.5629 24.3247 31.6821 24.7646 31.7944C26.9144 32.3555 29.2062 32.3696 30.8522 31.8224C31.3844 31.647 32.5764 31.1069 32.9098 30.8824C33.4845 30.5037 34.1799 30.0687 34.3785 29.9635C35.0171 29.6198 35.3861 29.9776 35.5492 31.0999C35.5918 31.3875 35.6557 31.6681 35.6982 31.7102C35.7692 31.8084 36.2871 31.8364 36.3368 31.7452C36.351 31.7172 36.3297 29.7882 36.2871 27.4523L36.2091 23.2084L35.8969 23.1873C35.535 23.1593 35.4641 23.2294 35.4641 23.6152C35.4641 23.9028 35.3861 24.4921 35.2087 25.5583C34.7475 28.287 33.9103 29.5847 31.9165 30.658C30.3201 31.5138 28.6456 31.5699 27.1628 30.8123C25.8147 30.1249 24.9278 28.8762 24.2467 26.7157C23.9132 25.6565 23.8564 25.411 23.6152 24.1203C23.303 22.4087 23.232 19.2591 23.4733 17.3161C23.7358 15.1275 24.1757 13.444 24.8568 11.9849C24.9916 11.6903 25.1052 11.4307 25.1052 11.4097C25.1052 11.3045 25.7295 10.4697 26.0559 10.14C26.7867 9.38947 27.6594 9.04575 29.043 8.96158C29.6319 8.9265 29.8589 8.94053 30.3911 9.07381C31.9378 9.44559 33.4207 10.4557 34.2012 11.6763C34.8255 12.6443 35.2796 14.3208 35.4854 16.4392C35.4996 16.6006 35.535 16.6146 35.8614 16.6356L36.2304 16.6567L36.2871 12.8126C36.3226 10.7012 36.351 8.84233 36.351 8.688C36.351 8.40742 36.351 8.40742 36.0601 8.38637C35.8827 8.37234 35.7408 8.4004 35.6982 8.45652C35.6557 8.50562 35.5847 8.78621 35.5421 9.07381C35.4925 9.36141 35.4286 9.62797 35.3931 9.66304C35.3506 9.70513 35.3222 9.77528 35.3222 9.82438C35.3222 9.8805 35.2512 10.0138 35.1661 10.126C35.0455 10.2944 34.9603 10.3365 34.7404 10.3365C34.5204 10.3365 34.3643 10.2593 33.9528 9.95766C32.626 8.98963 31.4624 8.43547 30.1073 8.1128C29.717 8.02161 26.879 7.91639 26.5951 7.98654Z" fill="white"/>
<path d="M0.180291 15.415C0.0525782 15.5482 -0.0396589 16.3269 0.0171024 16.8109C0.173196 18.0665 0.308004 18.5645 0.740808 19.4203C1.38647 20.718 2.47912 21.8264 3.6853 22.4156C4.96952 23.0399 5.5939 23.1872 6.83555 23.1592L7.68697 23.1381L7.70825 22.2613C7.75082 20.6479 7.32511 19.3151 6.37436 18.0595C5.26042 16.6004 3.81301 15.7306 1.97537 15.422C1.17361 15.2887 0.315099 15.2817 0.180291 15.415Z" fill="white"/>
<path d="M53.0245 15.422C50.825 15.8008 49.0158 17.1266 48.0224 19.0977C47.6961 19.736 47.5684 20.0938 47.4264 20.7882C47.3129 21.3073 47.2704 22.8365 47.3555 23.061C47.4194 23.2363 49.0158 23.2153 49.6969 23.0399C50.7399 22.7664 51.2862 22.5279 51.9957 22.0509C53.5141 21.0267 54.5642 19.4484 54.8835 17.7018C55.0254 16.9512 55.0396 15.5833 54.9118 15.429C54.7983 15.2887 53.7979 15.2887 53.0245 15.422Z" fill="white"/>
<path d="M2.54254 25.1303C1.84012 25.2356 0.534612 25.6845 0.392709 25.8739C0.272091 26.0352 0.662325 27.0664 1.1448 27.8661C2.91858 30.8052 6.63645 31.9135 9.9357 30.4896C10.0847 30.4264 10.2124 30.3352 10.2337 30.2791C10.2834 30.1528 9.94989 29.1918 9.69446 28.7219C9.29713 27.9923 9.01333 27.6065 8.48119 27.0804C7.62267 26.2176 6.60097 25.6354 5.30965 25.2636C4.78461 25.1163 3.18111 25.0391 2.54254 25.1303Z" fill="white"/>
<path d="M50.506 25.1093C50.201 25.1444 49.385 25.3408 49.1934 25.418C49.1154 25.453 48.8742 25.5512 48.6613 25.6354C47.5828 26.0633 46.2419 27.2207 45.6175 28.2519C45.0924 29.1358 44.7164 30.0547 44.7944 30.2721C44.8512 30.4124 45.4046 30.6509 46.2844 30.9105C46.9798 31.1139 49.0444 31.1349 49.6901 30.9385C51.6555 30.3353 52.9823 29.3742 53.8904 27.8661C54.3729 27.0664 54.7631 26.0353 54.6425 25.8669C54.5645 25.7687 53.7698 25.446 53.1667 25.2707C52.6772 25.1374 51.1162 25.0392 50.506 25.1093Z" fill="white"/>
<path d="M8.55254 33.1761C7.1477 33.4497 5.88476 34.1231 4.89144 35.1262L4.5083 35.505L4.66439 35.7505C4.86306 36.0732 5.82091 36.971 6.30338 37.2797C6.87099 37.6515 7.45989 37.925 8.18359 38.1565C8.79378 38.3529 8.87892 38.36 10.0993 38.36C11.1848 38.3529 11.4474 38.3319 11.8731 38.2056C13.0722 37.8549 13.9449 37.3779 14.8034 36.6063C15.3781 36.0872 15.4348 35.989 15.2717 35.7435C14.8885 35.1613 13.8455 34.2844 13.0367 33.8565C11.7454 33.1761 9.94319 32.9025 8.55254 33.1761Z" fill="white"/>
<path d="M43.9075 33.2042C43.2902 33.3304 42.9213 33.4357 42.6658 33.5479C42.0982 33.7934 41.5306 34.1161 41.1191 34.4107C40.5799 34.8105 39.6504 35.7716 39.6504 35.9329C39.6504 36.0802 40.5444 36.922 41.0552 37.2587C41.5732 37.5954 42.2614 37.9321 42.7723 38.0794C42.9851 38.1425 43.2618 38.2267 43.3753 38.2688C43.7159 38.381 45.44 38.4231 46.0147 38.3319C46.9513 38.1916 47.8524 37.8409 48.7322 37.2867C49.1863 36.9991 50.1654 36.0802 50.3783 35.7435L50.5273 35.505L50.1441 35.1262C49.3637 34.3406 48.3632 33.7233 47.2919 33.3796C46.3056 33.0569 44.9576 32.9867 43.9075 33.2042Z" fill="white"/>
<path d="M17.2656 38.3248C16.6342 38.4651 16.2865 38.5633 16.024 38.6825C15.4635 38.928 15.3074 39.0122 14.8746 39.2858C13.8387 39.9311 12.9092 40.9974 12.3558 42.1548C12.0223 42.8703 12.0507 42.9895 12.597 43.2701C12.8383 43.3964 13.0937 43.5156 13.1646 43.5437C13.2356 43.5647 13.4343 43.6349 13.6116 43.691C14.4702 43.9856 15.7899 44.0698 16.9464 43.9085C19.0181 43.6138 20.9977 42.1478 21.9059 40.2538C22.0407 39.9802 22.1755 39.7067 22.2039 39.6435C22.3742 39.3138 22.2961 39.2086 21.6363 38.9C20.1959 38.2195 18.6492 38.0161 17.2656 38.3248Z" fill="white"/>
<path d="M35.11 38.3249C34.3153 38.4862 34.1663 38.5423 33.4001 38.9001L32.7544 39.2017L32.797 39.4472C32.8892 40.0224 33.6626 41.2781 34.3792 42.0146C34.741 42.3934 35.5996 43.0037 36.1388 43.2843C37.0257 43.7402 38.168 43.9998 39.2961 43.9998C39.9134 44.0068 40.9635 43.8525 41.4247 43.6911C41.6021 43.635 41.8007 43.5649 41.8717 43.5438C41.9426 43.5158 42.1981 43.3965 42.4393 43.2702C42.9927 42.9897 43.014 42.8704 42.6663 42.1339C41.8504 40.4083 40.332 39.0825 38.5157 38.5073C37.4443 38.1706 36.1672 38.1004 35.11 38.3249Z" fill="white"/>
<path d="M26.9285 39.8471C26.2545 40.0715 25.7437 40.7941 25.7437 41.5236C25.7437 42.197 26.3113 42.9686 26.9427 43.151C28.3901 43.5859 29.7169 42.218 29.1635 40.8642C28.979 40.4223 28.5108 39.9804 28.078 39.8471C27.631 39.6998 27.3684 39.6998 26.9285 39.8471Z" fill="white"/>
</svg>
