<svg width="206" height="32" viewBox="0 0 206 32" fill="none" xmlns="http://www.w3.org/2000/svg">
<path d="M128.296 7.62068C126.775 9.90066 125.313 12.0953 123.848 14.2884C123.064 15.4622 122.257 16.6217 121.498 17.8115C121.201 18.2783 120.828 18.492 120.293 18.4797C119.879 18.4703 119.464 18.4927 119.052 18.466C118.408 18.4243 118.233 18.2373 118.233 17.6159C118.23 12.6998 118.23 7.78364 118.233 2.8675C118.233 2.21289 118.303 2.14885 118.945 2.0016C119.631 1.84437 120.309 1.81597 120.997 2.00223C121.598 2.16488 121.61 2.14886 121.611 2.74783C121.615 5.20589 121.615 7.66396 121.615 10.122C121.616 10.9217 121.615 11.7214 121.615 12.573C121.715 12.5177 121.79 12.5016 121.819 12.4562C122.446 11.489 123.057 10.5109 123.693 9.55014C124.912 7.71125 126.145 5.88155 127.373 4.04881C127.658 3.62343 127.994 3.22468 128.223 2.77154C128.514 2.19688 128.992 1.93497 129.569 1.90522C130.126 1.87646 130.694 1.96149 131.25 2.04505C131.371 2.06335 131.507 2.27228 131.555 2.41989C131.609 2.58388 131.572 2.77817 131.572 2.95926C131.572 7.79777 131.572 12.6363 131.571 17.4748C131.571 18.2511 131.414 18.4341 130.658 18.4701C130.168 18.4935 129.675 18.4933 129.184 18.4703C128.458 18.4362 128.294 18.2544 128.294 17.5336C128.293 14.4287 128.295 11.3238 128.296 8.21886C128.296 8.03954 128.296 7.8602 128.296 7.62068Z" fill="#47A640"/>
<path d="M180.969 10.3856C180.969 12.7655 180.97 15.1454 180.968 17.5252C180.968 18.229 180.945 18.3282 180.304 18.4124C179.644 18.4988 178.963 18.4961 178.299 18.4403C177.798 18.3981 177.69 18.1715 177.689 17.5582C177.688 13.6004 177.688 9.64255 177.687 5.6847C177.687 5.50362 177.695 5.32213 177.686 5.14156C177.666 4.7615 177.611 4.69112 177.229 4.68588C176.35 4.67382 175.47 4.68598 174.591 4.6795C174.266 4.67711 174.164 4.82236 174.12 5.14294C173.878 6.91502 173.655 8.69215 173.331 10.45C172.966 12.4281 172.598 14.4188 171.63 16.2219C171.094 17.22 170.392 18.0711 169.235 18.3579C168.62 18.5105 167.977 18.5581 167.344 18.6264C166.989 18.6648 166.743 18.4739 166.677 18.1227C166.611 17.7727 166.545 17.4123 166.561 17.06C166.579 16.6565 166.571 16.1698 166.789 15.8824C166.975 15.6381 167.469 15.6349 167.82 15.5081C168.23 15.36 168.486 15.0413 168.689 14.6714C169.133 13.8601 169.42 12.9914 169.635 12.0957C169.98 10.6537 170.253 9.19916 170.425 7.72528C170.568 6.50523 170.724 5.2866 170.889 4.06939C170.951 3.61566 171.024 3.15906 171.147 2.71919C171.324 2.08486 171.426 2.01642 172.061 2.0151C174.699 2.00959 177.338 2.00861 179.977 2.01508C180.646 2.01672 180.962 2.33488 180.965 3.01312C180.973 5.16016 180.968 7.30725 180.969 9.45432C180.969 9.76474 180.969 10.0752 180.969 10.3856Z" fill="#47A640"/>
<path d="M49.0081 4.68991C47.9146 4.68991 46.9332 4.68337 45.9519 4.6929C45.5151 4.69715 45.4945 4.73621 45.4433 5.18429C45.128 7.94049 44.728 10.6835 44.0355 13.3735C43.7414 14.5158 43.3643 15.6299 42.7317 16.6478C41.7785 18.1816 40.3379 18.6679 38.6389 18.628C38.2264 18.6183 38.0088 18.4237 37.9889 18.0134C37.9602 17.4203 37.9709 16.8236 37.9987 16.23C38.0143 15.8975 38.1633 15.6869 38.5676 15.6473C39.349 15.5708 39.8539 15.1075 40.191 14.3934C40.7108 13.2925 41.0295 12.1332 41.2386 10.9477C41.5729 9.05206 41.8573 7.14744 42.147 5.24421C42.236 4.65958 42.2681 4.06648 42.3369 3.47851C42.3636 3.25042 42.4033 3.02113 42.4655 2.80043C42.6625 2.10218 42.7712 2.01226 43.4814 2.01074C45.9907 2.00537 48.5001 2.00816 51.0094 2.00825C51.1646 2.00825 51.3207 2.00169 51.4748 2.01541C51.9747 2.05992 52.2212 2.2907 52.2786 2.78181C52.3025 2.9864 52.295 3.19513 52.295 3.40197C52.2956 8.08437 52.2952 12.7668 52.295 17.4492C52.295 17.5785 52.2887 17.7082 52.2961 17.8371C52.3119 18.1112 52.1886 18.2755 51.9244 18.3437C51.85 18.3629 51.7801 18.427 51.7088 18.4259C50.9914 18.4144 50.2673 18.4479 49.5591 18.3579C49.0149 18.2887 49.0227 18.2182 49.0078 17.7057C49.0033 17.5506 49.0075 17.3953 49.0075 17.2401C49.0077 13.3338 49.0079 9.42747 49.008 5.52116C49.0081 5.26759 49.0081 5.01401 49.0081 4.68991Z" fill="#1B2F4D"/>
<path d="M112.263 10.3197C112.263 12.7271 112.264 15.1346 112.263 17.542C112.262 18.2313 112.1 18.4305 111.437 18.4659C110.895 18.4949 110.349 18.4948 109.807 18.4646C109.149 18.4279 108.983 18.2237 108.983 17.5422C108.982 13.5299 108.984 9.51749 108.983 5.50513C108.983 4.68547 108.98 4.68423 108.188 4.68233C107.437 4.68052 106.686 4.6868 105.936 4.67905C105.64 4.676 105.464 4.74381 105.415 5.09188C105.176 6.8144 104.911 8.53344 104.654 10.2535C104.42 11.8213 104.063 13.3615 103.544 14.8587C103.172 15.9322 102.674 16.939 101.785 17.7036C101.262 18.1535 100.662 18.4075 99.9856 18.4915C99.5537 18.5451 99.1209 18.6172 98.6874 18.626C98.1905 18.6361 97.9778 18.4301 97.9591 17.9361C97.9375 17.3678 97.9618 16.7977 97.9633 16.2284C97.9641 15.9011 98.0717 15.6985 98.447 15.6698C99.3022 15.6043 99.8765 15.1146 100.17 14.3414C100.505 13.4616 100.854 12.5735 101.049 11.6575C101.415 9.93509 101.702 8.19407 101.971 6.45297C102.135 5.38906 102.201 4.31007 102.322 3.23908C102.347 3.01268 102.411 2.78925 102.472 2.56853C102.573 2.20239 102.809 2.00324 103.202 2.01523C103.306 2.01838 103.409 2.01208 103.513 2.01208C106.05 2.01215 108.587 2.01007 111.124 2.01406C112.013 2.01546 112.26 2.26641 112.261 3.17512C112.266 5.55665 112.263 7.93818 112.263 10.3197Z" fill="#47A640"/>
<path d="M141.04 4.78334C141.04 5.47504 141.04 6.0667 141.04 6.65835C141.04 10.2779 141.041 13.8974 141.039 17.517C141.039 18.2458 140.879 18.4304 140.162 18.4668C139.646 18.4929 139.127 18.4947 138.612 18.468C137.903 18.4312 137.652 18.1585 137.651 17.4596C137.648 12.7543 137.646 8.04887 137.654 3.3435C137.654 3.06784 137.712 2.78167 137.8 2.51949C137.905 2.20761 138.132 2.00859 138.496 2.01717C138.78 2.02388 139.064 2.01272 139.349 2.01266C141.624 2.01215 143.899 2.01021 146.174 2.01386C146.779 2.01483 146.897 2.11753 146.935 2.71155C146.961 3.12354 146.963 3.53937 146.941 3.95165C146.909 4.56266 146.693 4.77447 146.078 4.77965C144.682 4.7914 143.285 4.78334 141.889 4.78333C141.635 4.78333 141.38 4.78334 141.04 4.78334Z" fill="#47A640"/>
<path d="M61.9881 4.68918C61.9881 5.03984 61.9881 5.29642 61.9881 5.55301C61.988 9.51057 61.9881 13.4681 61.9876 17.4257C61.9875 18.2699 61.8815 18.4251 61.0347 18.4562C60.3969 18.4796 59.7542 18.3956 59.1151 18.3432C58.8058 18.3178 58.6653 18.1249 58.6858 17.8127C58.6942 17.6839 58.6872 17.5541 58.6872 17.4248C58.6872 12.7689 58.6873 8.1129 58.6873 3.45694C58.6873 3.35348 58.6852 3.24997 58.6873 3.14655C58.7054 2.27442 58.9695 2.01092 59.8656 2.00923C62.2712 2.00469 64.6767 2.00605 67.0823 2.00994C67.73 2.01098 67.8436 2.11037 67.8822 2.75826C67.9082 3.19617 67.9145 3.6393 67.8782 4.07581C67.8361 4.58211 67.7063 4.68469 67.1865 4.68684C65.6345 4.69327 64.0825 4.68916 62.5305 4.68917C62.3795 4.68917 62.2284 4.68918 61.9881 4.68918Z" fill="#1B2F4D"/>
<path d="M84.2203 24.6934C84.1346 25.0916 84.0685 25.3073 84.0443 25.5277C83.9684 26.219 83.9123 26.9124 83.8397 27.604C83.8185 27.8065 83.7567 28.0045 83.7334 28.2069C83.6934 28.555 83.3857 28.4915 83.1992 28.505C83.0249 28.5176 82.9173 28.3335 82.944 28.1103C83.0143 27.5224 83.0573 26.9311 83.1264 26.343C83.2133 25.6032 83.3054 24.8636 83.4146 24.1269C83.4816 23.6756 83.5351 23.6196 83.9317 23.6232C84.4871 23.6281 84.6231 23.4694 84.8911 24.2438C85.1677 25.0431 85.449 25.8409 85.7312 26.6382C85.7972 26.8246 85.8754 27.0066 85.9666 27.2378C86.3211 26.2021 86.6487 25.2307 86.9866 24.2629C87.1962 23.6626 87.5958 23.4562 88.18 23.6314C88.4585 23.7149 88.4728 23.97 88.5056 24.1901C88.5739 24.6478 88.6148 25.1096 88.6699 25.5693C88.7677 26.3855 88.8679 27.2014 88.9665 28.0175C89.0031 28.3194 88.9025 28.4657 88.6286 28.5119C88.3636 28.5566 88.1367 28.3933 88.1038 28.1132C87.9625 26.9116 87.8274 25.7092 87.6832 24.4476C87.5995 24.663 87.5236 24.8449 87.4578 25.0304C87.098 26.0451 86.7171 27.0534 86.3979 28.0809C86.3109 28.3611 86.1439 28.5004 85.9357 28.5122C85.6829 28.5266 85.503 28.3845 85.4042 28.0727C85.0644 26.9993 84.6646 25.9448 84.2203 24.6934Z" fill="#1B2F4D"/>
<path d="M28.571 26.9901C29.3353 25.9494 30.0198 25.0177 30.7038 24.0856C30.7954 23.9608 30.8592 23.7799 30.9817 23.7221C31.1555 23.64 31.3891 23.5884 31.5638 23.639C31.6745 23.671 31.7896 23.9118 31.7916 24.0603C31.809 25.406 31.7912 26.7521 31.8094 28.0977C31.8139 28.4365 31.5818 28.4799 31.3735 28.5193C31.1287 28.5656 30.9189 28.3356 30.9174 28.0588C30.9125 27.1033 30.9155 26.1477 30.9155 25.04C30.3354 25.8308 29.8399 26.5066 29.344 27.1822C29.1 27.5145 28.8623 27.8517 28.6073 28.1754C28.5171 28.2899 28.3974 28.3976 28.268 28.4616C27.9965 28.5959 27.6867 28.4195 27.685 28.122C27.6762 26.6511 27.681 25.1801 27.681 23.6509C27.9694 23.6329 28.2147 23.6176 28.4903 23.6005C28.6416 24.1709 28.5525 24.7114 28.5676 25.2438C28.583 25.7826 28.571 26.3222 28.571 26.9901Z" fill="#1B2F4D"/>
<path d="M71.9854 23.6283H72.8099C72.8594 24.7102 72.8016 25.7825 72.8493 26.9599C73.6184 25.9088 74.3122 24.9507 75.0201 24.003C75.1349 23.8493 75.2923 23.6786 75.4638 23.6259C75.8614 23.5038 76.0554 23.6581 76.0587 24.0753C76.0687 25.3695 76.07 26.6639 76.0582 27.9581C76.0538 28.443 75.998 28.4622 75.1995 28.3921V25.0397C74.9752 25.3093 74.8373 25.4573 74.7194 25.6199C74.1446 26.4129 73.5717 27.2073 73.0055 28.0065C72.7614 28.351 72.4844 28.5836 71.9854 28.3762L71.9854 23.6283Z" fill="#1B2F4D"/>
<path d="M16.1418 23.6077C16.3516 23.6077 16.4761 23.6025 16.6001 23.6094C16.6972 23.6147 16.7935 23.635 16.9501 23.657V27.0617C17.711 26.013 18.429 25.0439 19.122 24.0574C19.3713 23.7025 19.6423 23.4956 20.1363 23.668C20.1522 23.8155 20.1859 23.9866 20.1865 24.158C20.1912 25.4493 20.1862 26.7407 20.1925 28.032C20.1936 28.2591 20.1736 28.4209 19.8958 28.4765C19.5365 28.5484 19.3071 28.4135 19.3028 28.0479C19.2941 27.3248 19.3004 26.6016 19.3005 25.8785C19.3005 25.702 19.3005 25.5256 19.3005 25.1942C19.0683 25.4432 18.925 25.5704 18.8134 25.7211C18.247 26.4858 17.6886 27.2563 17.1284 28.0255C17.068 28.1084 17.0324 28.2345 16.9526 28.2733C16.7622 28.3659 16.5452 28.4892 16.352 28.4699C16.0789 28.4426 16.1431 28.1647 16.1429 27.9667C16.1408 26.5484 16.1418 25.13 16.1418 23.6077Z" fill="#1B2F4D"/>
<path d="M50.4467 26.0061C51.3003 26.5622 51.4382 27.525 51.8635 28.3384C51.0099 28.5342 50.9684 28.5166 50.6983 27.8628C50.5613 27.5312 50.4418 27.1912 50.2857 26.8688C50.1739 26.638 50.015 26.4597 49.7323 26.3732C49.0734 26.1717 48.9501 26.2368 48.9438 26.911C48.9392 27.3968 48.9429 27.8828 48.9429 28.4091H48.1372C48.1361 27.6155 48.1346 26.8248 48.1341 26.0341C48.1335 25.26 48.1339 24.4859 48.1339 23.6587H48.9193V25.5118C49.6783 25.6982 49.972 25.588 50.2719 24.994C50.4103 24.72 50.5085 24.4259 50.6299 24.143C50.7857 23.7799 51.1007 23.622 51.5747 23.6692C51.6711 24.133 51.3482 24.4914 51.2005 24.8737C51.0498 25.2641 50.733 25.5904 50.4467 26.0061Z" fill="#1B2F4D"/>
<path d="M35.8675 28.3635V26.6195C35.343 26.6574 34.8462 26.7006 34.3486 26.7276C33.5817 26.7693 33.0557 26.2206 32.9678 25.4603C32.9323 25.1535 32.9511 24.8403 32.9484 24.5301C32.946 24.2509 32.9479 23.9718 32.9479 23.6502H33.8164C33.8257 24.1441 33.8281 24.6274 33.8455 25.1103C33.8716 25.8297 34.314 26.1899 35.0117 26.0608C35.188 26.0281 35.3621 25.9744 35.5306 25.9124C35.7585 25.8285 35.9108 25.715 35.8913 25.4091C35.8555 24.8451 35.8811 24.2772 35.8811 23.6669C36.0586 23.6437 36.2033 23.6189 36.349 23.607C36.6505 23.5823 36.7646 23.7504 36.7646 24.027C36.7645 24.3374 36.7628 24.6478 36.7627 24.9582C36.7626 25.8894 36.7659 26.8207 36.762 27.7518C36.759 28.4727 36.7368 28.4866 35.8675 28.3635Z" fill="#1B2F4D"/>
<path d="M46.8284 27.1949C46.9275 27.9662 46.8942 28.0494 46.3552 28.3022C44.6474 29.1035 43.3733 27.9602 43.3372 26.5487C43.3221 25.9586 43.2956 25.3722 43.5028 24.795C43.9186 23.6367 45.4691 23.1099 46.5741 23.8648C46.7237 23.9671 46.8213 24.177 46.8866 24.3575C46.9187 24.446 46.8454 24.6019 46.7723 24.6862C46.738 24.7256 46.5842 24.6853 46.497 24.6502C46.2618 24.5554 46.0412 24.4188 45.8008 24.3438C45.0672 24.1148 44.4141 24.4531 44.2951 25.1938C44.2105 25.7209 44.2108 26.2808 44.2861 26.81C44.4045 27.642 45.1957 28.0227 45.9773 27.6728C46.2528 27.5495 46.5066 27.3776 46.8284 27.1949Z" fill="#1B2F4D"/>
<path fill-rule="evenodd" clip-rule="evenodd" d="M25.3074 1.83102C26.788 1.61226 28.2478 1.65622 29.673 2.0493C32.0397 2.70207 33.4662 4.30361 34.0664 6.66769C34.2893 7.54583 34.3683 8.43651 34.4153 9.34054C34.5003 10.9765 34.3376 12.5667 33.7647 14.1068C32.8627 16.5311 31.1132 17.9676 28.6001 18.4724C27.8972 18.6136 27.1706 18.6378 26.4549 18.7155C25.198 18.6949 23.9874 18.512 22.828 18.0236C21.4318 17.4355 20.4257 16.4391 19.8109 15.0693C19.2687 13.8613 19.0154 12.5795 18.993 11.2524C18.9681 9.78147 18.9856 8.32657 19.4312 6.89229C20.341 3.96394 22.2625 2.28093 25.3074 1.83102ZM27.9609 4.57129C27.3926 4.44364 26.7809 4.48478 26.1894 4.48997C25.3843 4.49701 24.6989 4.82538 24.0959 5.35002C23.1252 6.19475 22.7359 7.31234 22.5714 8.54033C22.4342 9.56427 22.4101 10.582 22.5402 11.6156C22.634 12.3611 22.7722 13.0843 23.0416 13.7798C23.3407 14.5519 23.8435 15.1739 24.6054 15.5151C25.6769 15.995 26.8101 16.0151 27.9301 15.738C29.4719 15.3567 30.2875 14.2378 30.6371 12.7744C30.8447 11.9057 30.9065 11.0021 30.9704 10.5562C30.941 9.01951 30.8361 7.94899 30.4955 6.91336C30.0848 5.66438 29.2316 4.8568 27.9609 4.57129Z" fill="#1B2F4D"/>
<path fill-rule="evenodd" clip-rule="evenodd" d="M3.65616 2.01067C5.25918 2.00722 6.86272 2.00077 8.46544 2.02542C9.47575 2.04097 10.4442 2.2644 11.3658 2.70428C12.9992 3.48392 13.5396 5.31474 13.2886 6.80563C13.0928 7.96863 12.5032 8.85632 11.4059 9.36386C11.3363 9.39608 11.2744 9.44524 11.1046 9.55264C13.1885 9.93271 14.2622 11.7177 14.3172 13.2596C14.4085 15.8208 12.8033 17.4724 10.6566 18.0301C9.88005 18.2318 9.09935 18.3575 8.29604 18.3554C6.74479 18.3514 5.19349 18.3632 3.64225 18.3571C2.7633 18.3536 2.48799 18.078 2.48723 17.1979C2.48322 12.518 2.48298 7.83797 2.48723 3.15811C2.48805 2.29367 2.77708 2.01261 3.65616 2.01067ZM8.25306 11.2053C7.4564 11.1457 6.65186 11.1893 5.74834 11.1893V15.8427C6.6144 15.8427 7.41197 15.8572 8.20839 15.8359C8.5646 15.8264 8.92626 15.7748 9.27281 15.6906C10.1715 15.4722 10.7795 14.7501 10.8661 13.8272C10.9617 12.8078 10.542 11.881 9.73465 11.569C9.26282 11.3867 8.75425 11.2428 8.25306 11.2053ZM8.1869 4.53141C7.40162 4.45254 6.60184 4.51665 5.7791 4.51666V8.71113C6.50768 8.71114 7.17684 8.72414 7.84516 8.70818C9.25538 8.6745 9.99945 7.86799 9.98496 6.45124C9.97362 5.34896 9.34496 4.64776 8.1869 4.53141Z" fill="#1B2F4D"/>
<path fill-rule="evenodd" clip-rule="evenodd" d="M75.7519 1.90807C76.5021 1.89556 77.253 1.89571 78.0033 1.90554C78.6849 1.91449 79.099 2.18282 79.345 2.90465C80.9236 7.53744 82.5585 12.1511 84.1682 16.7733C84.2857 17.1106 84.3827 17.4619 84.432 17.8146C84.4886 18.2198 84.3956 18.4003 84.0207 18.4171C83.1743 18.4552 82.3234 18.4293 81.476 18.3927C81.0677 18.375 80.9628 18.0114 80.8595 17.6886C80.594 16.8591 80.3373 16.0267 80.069 15.1982C79.8843 14.6278 79.8781 14.6275 79.2734 14.6272C77.4616 14.6262 75.6498 14.6272 73.7414 14.6272C73.4101 15.6521 73.051 16.6383 72.7807 17.6481C72.6329 18.1998 72.3004 18.4243 71.8022 18.4546C71.235 18.4892 70.6624 18.4928 70.0952 18.4593C69.5434 18.4266 69.4228 18.2606 69.4867 17.7079C69.5159 17.4555 69.5832 17.2025 69.667 16.9617C71.309 12.242 72.9696 7.52863 74.5859 2.80015C74.8 2.17363 75.1522 1.91812 75.7519 1.90807ZM74.4936 12.0399C75.6877 12.1672 78.4644 12.1312 79.0323 11.9737C78.3063 9.74516 77.5808 7.51887 76.8555 5.29265C76.8076 5.2908 76.7597 5.28859 76.7118 5.28675C75.9737 7.53393 75.2354 9.78128 74.4936 12.0399Z" fill="#1B2F4D"/>
<path fill-rule="evenodd" clip-rule="evenodd" d="M154.34 1.99405C155.366 1.84713 156.383 1.86379 157.408 1.99405C157.789 2.04248 158.021 2.19761 158.146 2.55576C158.44 3.39706 158.753 4.23191 159.046 5.07354C160.302 8.68369 161.553 12.296 162.809 15.9065C162.959 16.3399 163.124 16.7684 163.281 17.1993C163.316 17.2949 163.363 17.3888 163.382 17.4876C163.523 18.239 163.344 18.4541 162.559 18.4753C162.301 18.4823 162.042 18.4766 161.783 18.4766V18.4724C161.472 18.4724 161.161 18.484 160.852 18.4694C160.239 18.4405 160.021 18.2861 159.837 17.7198C159.562 16.8715 159.304 16.0178 159.045 15.1645C158.905 14.7035 158.815 14.6256 158.262 14.6238C156.554 14.6183 154.846 14.631 153.139 14.6116C152.786 14.6076 152.629 14.7576 152.536 15.0574C152.28 15.8847 152.025 16.7123 151.759 17.5365C151.507 18.3208 151.37 18.4358 150.577 18.4732C150.086 18.4963 149.592 18.4972 149.102 18.4677C148.507 18.4318 148.34 18.2402 148.485 17.6296C148.661 16.8884 148.908 16.1619 149.156 15.4401C150.173 12.4758 151.203 9.51547 152.23 6.55429C152.638 5.37528 153.05 4.19716 153.465 3.02013C153.533 2.8272 153.624 2.64254 153.699 2.4521C153.815 2.15981 154.013 2.04082 154.34 1.99405ZM153.465 12.0643H158.018C157.285 9.71784 156.549 7.44066 155.726 5.10262C154.955 7.47703 154.217 9.74782 153.465 12.0643Z" fill="#47A640"/>
<path fill-rule="evenodd" clip-rule="evenodd" d="M67.9267 21.4434C68.1836 21.4396 68.3004 21.5882 68.303 21.8303C68.3076 22.2698 68.3129 22.71 68.3 23.1492C68.2937 23.3668 68.3759 23.486 68.5853 23.5289C68.7109 23.5545 68.8353 23.5868 68.9595 23.6186C69.9913 23.8833 70.6131 24.6518 70.6708 25.7251C70.7139 26.5286 70.5619 27.2639 69.9565 27.8485C69.6549 28.1397 69.3257 28.3713 68.8955 28.4406C68.7 28.472 68.5135 28.5595 68.303 28.6281C68.303 29.0198 68.3104 29.3791 68.3013 29.738C68.2888 30.2298 68.2105 30.3073 67.783 30.2917C67.4484 30.2795 67.4287 30.2547 67.4193 29.7751C67.4123 29.4136 67.4127 29.0519 67.4071 28.6904C67.4068 28.6682 67.3819 28.6463 67.3684 28.6243C65.6152 28.1218 65.0369 27.5558 64.996 26.1743C64.9835 25.753 65.1131 25.3118 65.2534 24.906C65.4078 24.4596 65.7198 24.0947 66.1594 23.8934C66.5499 23.7145 66.9644 23.5873 67.4278 23.4151V21.4797C67.6306 21.4642 67.7786 21.4457 67.9267 21.4434ZM67.3882 24.2895C66.1637 24.2583 65.816 25.3283 65.8893 26.2455C65.9262 26.7071 66.0429 27.1655 66.4257 27.4768C66.6971 27.6975 67.0041 27.8733 67.3882 27.7743V24.2895ZM68.2613 27.7453C69.0559 27.7759 69.6356 27.3413 69.7332 26.6071C69.7835 26.2283 69.7812 25.8315 69.7311 25.4525C69.6339 24.7185 69.0743 24.2966 68.2613 24.3076V27.7453Z" fill="#1B2F4D"/>
<path fill-rule="evenodd" clip-rule="evenodd" d="M7.08598 23.4906C8.14739 23.4931 8.91362 24.0949 9.16383 25.094C9.38649 25.9831 9.3174 26.826 8.81534 27.6071C8.29303 28.4197 7.49918 28.6638 6.60138 28.5363C5.7068 28.4091 5.09972 27.9121 4.9428 26.9645C4.91023 26.7677 4.8218 26.5801 4.75402 26.3724H3.94286C3.7831 26.9192 3.90401 27.487 3.86701 28.0441C3.84499 28.3747 3.63698 28.5827 3.3428 28.5089C3.15746 28.4624 2.96591 28.4002 2.96903 28.1073C2.98494 26.6377 2.9762 25.1678 2.9762 23.6431C3.27845 23.6296 3.5236 23.6185 3.8413 23.6044V25.5916H4.80038C4.85018 25.4371 4.91825 25.2519 4.96935 25.0623C5.23159 24.0898 6.03911 23.4881 7.08598 23.4906ZM7.14118 24.2331C6.5408 24.1946 6.12093 24.446 5.8884 25.0387C5.6361 25.6819 5.65317 26.3451 5.8669 26.9957C6.06514 27.599 6.37878 27.81 7.0097 27.8132C7.57419 27.8159 8.05141 27.5269 8.21318 27.029C8.31495 26.7157 8.37579 26.4262 8.36867 26.0286C8.36288 25.7049 8.32171 25.4884 8.25448 25.217C8.10102 24.5974 7.72346 24.2704 7.14118 24.2331Z" fill="#1B2F4D"/>
<path fill-rule="evenodd" clip-rule="evenodd" d="M25.4582 23.6153C25.8015 23.613 25.8999 23.8013 25.8981 24.1063C25.8935 24.9084 25.8973 25.7106 25.8977 26.5128C25.8978 26.8718 25.8977 27.231 25.8977 27.6354C26.0738 27.6583 26.2181 27.6763 26.3621 27.6956C26.6041 27.7281 26.714 27.8539 26.7093 28.1111C26.6974 28.7527 26.7055 29.3948 26.7055 30.0781H25.9803V28.4689H21.9207V30.0318C21.7308 30.0667 21.5886 30.1055 21.4445 30.1161C21.2671 30.1291 21.1454 30.0514 21.1449 29.8531C21.1434 29.258 21.1308 28.6623 21.1541 28.0681C21.159 27.9466 21.2902 27.7378 21.3821 27.7268C21.9767 27.6557 22.0915 27.1608 22.2181 26.7467C22.427 26.0641 22.5481 25.354 22.6964 24.6536C22.7644 24.3324 22.8092 24.0061 22.8755 23.6175C23.7624 23.6175 24.6104 23.6211 25.4582 23.6153ZM23.6323 24.3667C23.3322 25.4628 23.3289 26.6508 22.5852 27.7428H24.9643V24.3667H23.6323Z" fill="#1B2F4D"/>
<path fill-rule="evenodd" clip-rule="evenodd" d="M12.4558 23.6014C13.0896 23.2783 14.1258 23.6792 14.4549 24.4421C14.9056 25.4873 14.9301 26.5481 14.4355 27.5742C13.9469 28.5877 12.745 28.8533 11.8242 28.2008C11.7282 28.1329 11.635 28.0609 11.4719 27.9404V30.2319H10.6042V23.7223C11.0369 23.6026 11.2996 23.7497 11.3927 24.1631C11.7402 23.979 12.0956 23.7851 12.4558 23.6014ZM13.7621 25.0838C13.5395 24.2179 12.7155 23.9948 12.0087 24.5525C11.6522 24.8337 11.3603 25.1472 11.4542 25.6599C11.4771 25.785 11.4576 25.9181 11.4576 26.1773C11.3569 26.6839 11.4858 27.21 12.0816 27.581C12.7605 28.0035 13.3932 27.817 13.6934 27.0622C13.9523 26.4113 13.9284 25.7309 13.7621 25.0838Z" fill="#1B2F4D"/>
<path fill-rule="evenodd" clip-rule="evenodd" d="M79.5486 23.5997C80.238 23.2453 81.2885 23.8052 81.554 24.4471C82.0238 25.5829 82.0169 26.704 81.3875 27.7735C80.9457 28.5242 79.9147 28.7802 79.155 28.3723C79.0003 28.2892 78.8625 28.175 78.6527 28.031C78.6079 28.2325 78.557 28.3657 78.5524 28.5004C78.54 28.8614 78.5484 29.2232 78.5465 29.5846C78.5439 30.0772 78.2601 30.2875 77.6953 30.2154V23.6831C78.1354 23.6301 78.3983 23.7893 78.4833 24.1605C78.8317 23.9769 79.1884 23.7848 79.5486 23.5997ZM80.7563 24.8659C80.5902 24.3939 80.0826 24.1528 79.64 24.2587C78.9345 24.4276 78.4812 25.0128 78.4766 25.761C78.4755 25.9408 78.5021 26.1253 78.4719 26.2999C78.3545 26.9801 78.7576 27.353 79.2646 27.6517C79.8298 27.9848 80.4934 27.7896 80.7436 27.1878C80.8875 26.8418 80.9245 26.4514 81.0095 26.0812C80.9254 25.6582 80.8895 25.2448 80.7563 24.8659Z" fill="#1B2F4D"/>
<path fill-rule="evenodd" clip-rule="evenodd" d="M38.3258 24.6997C38.932 23.3135 40.9304 23.0793 41.852 24.2429C42.2477 24.7426 42.2938 25.3301 42.2338 25.9247C42.205 26.2099 41.9399 26.234 41.6931 26.2319C41.0482 26.2264 40.4031 26.2295 39.7581 26.2293C39.5287 26.2293 39.2992 26.2293 39.0161 26.2293C38.9817 27.3839 39.4001 27.8491 40.4408 27.8188C40.843 27.8071 41.2462 27.6938 41.64 27.5925C41.7929 27.5532 41.9532 27.4452 42.034 27.6271C42.0879 27.7481 42.0522 27.9272 42.0096 28.0657C41.9845 28.1473 41.8779 28.2293 41.7896 28.2621C40.928 28.5829 40.0548 28.7336 39.1808 28.319C38.7221 28.1013 38.3892 27.7367 38.2344 27.2537C37.9599 26.397 37.9594 25.5377 38.3258 24.6997ZM40.319 24.2117C39.4718 24.1792 39.0632 24.5865 38.9996 25.5623H41.3303C41.3314 24.6011 41.0511 24.24 40.319 24.2117Z" fill="#1B2F4D"/>
<path fill-rule="evenodd" clip-rule="evenodd" d="M60.0048 23.5198C60.2771 23.4916 60.5606 23.5925 60.8404 23.6078C61.1514 23.625 61.3243 23.7601 61.3246 24.0794C61.3258 25.4247 61.3281 26.7701 61.3221 28.1154C61.321 28.3443 61.0909 28.5697 60.8809 28.5182C60.6841 28.4699 60.4132 28.4646 60.4296 28.1133C60.4546 27.5746 60.4359 27.0338 60.4359 26.4459C59.2553 26.3807 59.1005 26.4807 58.6863 27.4993C58.5993 27.7133 58.4628 27.9141 58.4145 28.1352C58.3498 28.431 58.1249 28.4856 57.9071 28.5275C57.5857 28.5893 57.3861 28.3647 57.514 28.0737C57.8011 27.4201 57.9781 26.7016 58.5995 26.204C58.3912 26.0838 58.2007 26.0114 58.0584 25.885C57.4797 25.3706 57.5752 24.3879 58.2308 23.9416C58.7687 23.5754 59.3989 23.5826 60.0048 23.5198ZM59.6858 24.2222C59.5571 24.2235 59.4267 24.2199 59.2998 24.2378C58.8339 24.3037 58.5743 24.5651 58.5569 24.9731C58.5414 25.3385 58.7464 25.6337 59.1919 25.7207C59.5819 25.7967 59.9921 25.7705 60.4144 25.7902V24.2218C60.1403 24.2218 59.913 24.22 59.6858 24.2222Z" fill="#1B2F4D"/>
<path fill-rule="evenodd" clip-rule="evenodd" d="M53.2184 23.8039C53.8926 23.5154 54.5876 23.3675 55.3165 23.6206C55.7864 23.7838 56.1259 24.0693 56.2245 24.5721C56.2833 24.8721 56.3283 25.1795 56.3341 25.4844C56.3492 26.2861 56.3412 27.0885 56.3392 27.8905C56.3381 28.3167 56.2287 28.512 55.9692 28.5272C55.5922 28.5494 55.6129 28.239 55.5588 28.0119C55.2633 28.1633 54.9733 28.3232 54.6743 28.4628C53.9686 28.7919 52.7288 28.3106 52.5994 27.5387C52.4932 26.9056 52.63 26.3399 53.1804 26.001C53.532 25.7846 53.9161 25.6353 54.3435 25.6403C54.6993 25.6446 55.0554 25.6412 55.4585 25.6412C55.445 25.3387 55.4683 25.1059 55.4176 24.8907C55.3175 24.4665 55.027 24.2176 54.5832 24.2354C54.2061 24.2506 53.8291 24.3518 53.4598 24.4457C53.27 24.494 53.0971 24.6094 52.9074 24.699C52.7796 24.04 52.7815 23.9909 53.2184 23.8039ZM55.4597 26.2539C55.0573 26.2539 54.7467 26.2173 54.4497 26.2648C54.1837 26.3074 53.8933 26.3904 53.6836 26.5484C53.272 26.8586 53.3663 27.5522 53.8125 27.7713C54.5086 28.1129 55.4475 27.5419 55.4597 26.7688C55.4621 26.6204 55.4597 26.4718 55.4597 26.2539Z" fill="#1B2F4D"/>
<path fill-rule="evenodd" clip-rule="evenodd" d="M90.6322 23.822C91.3262 23.5005 92.0496 23.3805 92.7944 23.6294C93.2331 23.776 93.5537 24.0646 93.6603 24.5307C93.7227 24.8035 93.7731 25.0853 93.777 25.3638C93.7909 26.3431 93.7825 27.3228 93.7825 28.3519C93.3438 28.4294 93.0822 28.3155 92.9979 28.0106C92.7071 28.1609 92.4245 28.3418 92.1176 28.4585C91.2265 28.7974 90.2619 28.33 90.0347 27.4716C89.8779 26.8788 90.11 26.2591 90.6761 25.9715C91.009 25.8023 91.3948 25.7098 91.7674 25.6537C92.1158 25.6013 92.4783 25.6424 92.8883 25.6424C92.8883 25.3817 92.9177 25.1785 92.8829 24.9871C92.791 24.4828 92.4922 24.2623 91.9752 24.2181C91.3796 24.1672 90.8953 24.4799 90.3769 24.6841C90.195 24.0716 90.1988 24.0228 90.6322 23.822ZM92.901 26.2567C92.4985 26.2567 92.1663 26.2239 91.8446 26.2673C91.6022 26.3 91.338 26.3833 91.1446 26.5264C90.7009 26.855 90.8067 27.592 91.2989 27.7923C92.0488 28.0972 92.8916 27.5352 92.9006 26.7236C92.9019 26.5978 92.901 26.4718 92.901 26.2567Z" fill="#1B2F4D"/>
</svg>
