<svg width="1474" height="658" viewBox="0 0 1474 658" fill="none" xmlns="http://www.w3.org/2000/svg">
<path d="M291.575 648.861C286.249 648.861 281.722 646.729 277.994 642.464C274.266 638.199 272.403 633.02 272.403 626.928V509.95H19.172C13.3139 509.95 8.5209 507.818 4.79301 503.553C1.59767 499.288 0 494.109 0 488.017V425.872C0 422.217 0.532556 417.952 1.59767 413.078C3.19534 407.594 5.59184 402.72 8.78718 398.456L244.443 24.675C251.367 14.3176 261.219 9.13888 274 9.13888H361.073C366.399 9.13888 370.925 11.2713 374.653 15.5361C378.381 19.8009 380.245 24.9796 380.245 31.0722V402.111H451.341C457.732 402.111 462.525 404.243 465.72 408.508C469.448 412.164 471.312 417.343 471.312 424.044V488.017C471.312 494.109 469.448 499.288 465.72 503.553C461.993 507.818 457.466 509.95 452.14 509.95H380.245V626.928C380.245 633.02 378.381 638.199 374.653 642.464C370.925 646.729 366.399 648.861 361.073 648.861H291.575ZM111.038 405.767H274.799V141.653L111.038 405.767Z" fill="#036A6D"/>
<path d="M737.446 658C699.635 658 667.415 651.603 640.787 638.808C614.159 626.014 592.325 608.345 575.283 585.803C558.241 563.26 545.46 537.367 536.939 508.122C528.418 478.268 523.359 446.587 521.761 413.078C521.228 396.628 520.696 378.655 520.163 359.158C520.163 339.053 520.163 318.947 520.163 298.842C520.696 278.736 521.228 260.154 521.761 243.094C522.826 209.585 527.885 178.208 536.939 148.964C545.992 119.11 559.04 93.2167 576.082 71.2833C593.656 49.35 615.757 31.9861 642.385 19.1917C669.013 6.39723 700.7 0 737.446 0C774.725 0 806.679 6.39723 833.306 19.1917C859.934 31.9861 881.769 49.35 898.811 71.2833C916.385 93.2167 929.433 119.11 937.954 148.964C947.007 178.208 952.066 209.585 953.132 243.094C954.197 260.154 954.729 278.736 954.729 298.842C954.729 318.947 954.729 339.053 954.729 359.158C954.729 378.655 954.197 396.628 953.132 413.078C952.066 446.587 947.273 478.268 938.753 508.122C930.232 537.367 917.45 563.26 900.408 585.803C883.367 608.345 861.266 626.014 834.105 638.808C807.477 651.603 775.258 658 737.446 658ZM737.446 552.903C772.062 552.903 797.359 540.108 813.336 514.519C829.845 488.321 838.366 452.984 838.898 408.508C839.963 390.84 840.496 373.171 840.496 355.503C840.496 337.225 840.496 318.947 840.496 300.669C840.496 282.392 839.963 265.028 838.898 248.578C838.366 205.32 829.845 170.593 813.336 144.394C797.359 117.587 772.062 104.183 737.446 104.183C703.363 104.183 678.066 117.587 661.557 144.394C645.58 170.593 637.059 205.32 635.994 248.578C635.994 265.028 635.728 282.392 635.195 300.669C635.195 318.947 635.195 337.225 635.195 355.503C635.728 373.171 635.994 390.84 635.994 408.508C637.059 452.984 645.847 488.321 662.356 514.519C678.865 540.108 703.895 552.903 737.446 552.903Z" fill="#036A6D"/>
<path d="M1294.26 648.861C1288.94 648.861 1284.41 646.729 1280.68 642.464C1276.95 638.199 1275.09 633.02 1275.09 626.928V509.95H1021.86C1016 509.95 1011.21 507.818 1007.48 503.553C1004.29 499.288 1002.69 494.109 1002.69 488.017V425.872C1002.69 422.217 1003.22 417.952 1004.29 413.078C1005.88 407.594 1008.28 402.72 1011.47 398.456L1247.13 24.675C1254.05 14.3176 1263.91 9.13888 1276.69 9.13888H1363.76C1369.09 9.13888 1373.61 11.2713 1377.34 15.5361C1381.07 19.8009 1382.93 24.9796 1382.93 31.0722V402.111H1454.03C1460.42 402.111 1465.21 404.243 1468.41 408.508C1472.14 412.164 1474 417.343 1474 424.044V488.017C1474 494.109 1472.14 499.288 1468.41 503.553C1464.68 507.818 1460.15 509.95 1454.83 509.95H1382.93V626.928C1382.93 633.02 1381.07 638.199 1377.34 642.464C1373.61 646.729 1369.09 648.861 1363.76 648.861H1294.26ZM1113.73 405.767H1277.49V141.653L1113.73 405.767Z" fill="#036A6D"/>
</svg>
