<svg width="55" height="44" viewBox="0 0 55 44" fill="none" xmlns="http://www.w3.org/2000/svg">
<path d="M5.48828 9.51609V14.9532H6.56481H7.64135V10.4644V5.97566H9.47779H11.3142V10.4644V14.9532H12.3908H13.4673V9.51609V4.079H9.47779H5.48828V9.51609Z" fill="white"/>
<path d="M10.8318 18.1174C9.12785 18.563 7.82246 19.4935 7.01139 20.8403C6.55924 21.591 6.1418 22.9184 6.12888 23.6462L6.12154 24.0571H8.13123H10.1411L10.2102 23.5423C10.4563 21.7101 12.7834 20.8184 14.4255 21.9272C15.767 22.8329 15.862 25.4078 14.5893 26.367C14.1031 26.7335 13.3662 26.9636 12.6757 26.9646L12.2008 26.9654V28.6544V30.3433L12.9599 30.4226C14.8413 30.6188 15.8059 31.6327 15.8059 33.414C15.8059 35.3539 14.3683 36.6353 12.4469 36.4082C11.0633 36.2446 10.1621 35.4257 9.94108 34.1314L9.85103 33.6037L7.85957 33.5689L5.86823 33.534L5.87039 33.9482C5.87431 34.6896 6.22856 36.0621 6.59014 36.7369C7.70391 38.8159 9.96957 39.9813 12.9088 39.9869C15.0492 39.991 16.7482 39.3621 18.0437 38.0861C19.2499 36.898 19.7998 35.4699 19.7998 33.5251C19.7998 31.5567 19.061 29.9749 17.7062 29.0433L17.0238 28.5742L17.557 28.2001C18.6007 27.4675 19.1903 26.5018 19.429 25.1333C19.892 22.4782 18.578 19.804 16.2204 18.6032C14.7983 17.8787 12.527 17.674 10.8318 18.1174Z" fill="white"/>
<path fill-rule="evenodd" clip-rule="evenodd" d="M26.3726 18.0545C24.1706 18.5881 22.4666 20.129 21.7356 22.2477C21.5557 22.7687 21.5189 23.6524 21.4786 28.4119C21.426 34.6193 21.4752 35.2081 22.1596 36.574C23.2354 38.7207 25.4634 39.9891 28.1588 39.9891C30.1817 39.9891 31.6758 39.4043 32.9812 38.1017C33.9846 37.1002 34.4498 36.183 34.706 34.7008C34.9724 33.16 34.8797 23.4229 34.5894 22.4559C33.7259 19.579 31.2707 17.8466 28.0955 17.8738C27.5382 17.8786 26.7629 17.9599 26.3726 18.0545ZM25.6433 23.2857C25.9406 22.399 26.6376 21.7134 27.4337 21.5246C28.6935 21.2258 29.8863 21.7391 30.4713 22.8317C30.75 23.3518 30.7559 23.4576 30.7966 28.5459C30.8446 34.5406 30.8167 34.7927 30.0158 35.623C28.9637 36.7136 27.3864 36.7223 26.3056 35.6435C25.9983 35.3365 25.7236 34.9112 25.6411 34.6148C25.444 33.9064 25.4461 23.8739 25.6433 23.2857Z" fill="white"/>
<path fill-rule="evenodd" clip-rule="evenodd" d="M41.8023 18.0594C40.0697 18.4784 38.4469 19.6895 37.6713 21.1425C36.957 22.4804 36.9021 23.0361 36.9021 28.9252C36.9021 34.8304 36.9557 35.3666 37.6832 36.7318C39.2871 39.7421 43.5021 40.9013 46.9031 39.2675C47.8304 38.822 49.1683 37.4769 49.6035 36.5526C50.2309 35.2203 50.2594 34.8883 50.2594 28.9252C50.2594 22.7836 50.2414 22.6051 49.472 21.1243C48.1722 18.6225 44.8926 17.3119 41.8023 18.0594ZM41.0947 23.2857C41.3921 22.399 42.089 21.7134 42.8851 21.5246C44.3416 21.1792 45.6565 21.9087 46.0661 23.2899C46.238 23.8693 46.2699 24.7431 46.2699 28.8787C46.2699 31.9718 46.2183 34.0207 46.1303 34.4306C45.856 35.7076 44.5832 36.5816 43.261 36.4006C42.2685 36.2648 41.6166 35.782 41.1914 34.8681C40.974 34.4008 40.9559 33.9572 40.9533 29.0389C40.9514 25.3885 40.9959 23.5805 41.0947 23.2857Z" fill="white"/>
<path fill-rule="evenodd" clip-rule="evenodd" d="M45.32 4.12187C44.4622 4.40548 44.0455 4.67582 43.4551 5.33156C42.6408 6.23576 42.5337 6.72206 42.5337 9.51609C42.5337 12.3766 42.6665 12.8895 43.6653 13.8866C44.4882 14.7083 45.3146 15.0174 46.6498 15.0033C48.2662 14.9861 49.5675 14.1491 50.242 12.6926C50.4907 12.1557 50.5127 11.8972 50.5127 9.51609C50.5127 6.98936 50.5045 6.90642 50.1843 6.22855C49.5357 4.85537 48.3183 4.07079 46.7201 3.99606C46.2016 3.97191 45.614 4.02463 45.32 4.12187ZM44.6439 9.1728C44.6997 7.02224 44.8734 6.47954 45.6346 6.08049C46.5137 5.61985 47.6147 5.9175 48.1063 6.74861C48.3337 7.13288 48.3596 7.40397 48.3596 9.38965C48.3596 10.6067 48.3181 11.75 48.2672 11.9303C47.9283 13.1328 46.1216 13.5216 45.2277 12.5844C44.7201 12.0522 44.5892 11.2876 44.6439 9.1728Z" fill="white"/>
<path fill-rule="evenodd" clip-rule="evenodd" d="M33.7314 9.51609V14.9532L36.2961 14.9502C39.0705 14.9467 39.6839 14.8632 40.4424 14.3852C41.956 13.4313 42.1517 10.7565 40.7841 9.71512L40.3344 9.37258L40.8242 8.88362C42.2069 7.50311 41.6194 5.042 39.7395 4.33986C39.1158 4.10682 38.7581 4.079 36.3863 4.079H33.7314V9.51609ZM35.9478 8.44132L35.9115 7.19749L35.875 5.95366L37.3476 5.99627C38.7806 6.03775 38.8281 6.04837 39.1254 6.39369C39.5561 6.89415 39.5323 7.50197 39.0613 8.02835L38.6917 8.44132H37.3198H35.9478ZM35.8845 13.0565V11.7289V10.4012H37.3507C38.8024 10.4012 38.8207 10.4049 39.1872 10.7708C39.6082 11.1911 39.681 11.8189 39.3769 12.406C39.1064 12.9283 38.6791 13.0565 37.2084 13.0565H35.8845Z" fill="white"/>
<path fill-rule="evenodd" clip-rule="evenodd" d="M26.791 4.42672C26.7217 4.61803 25.8327 7.04121 24.8155 9.81185C23.7983 12.5824 22.9661 14.8725 22.9661 14.9012C22.9661 14.9298 23.469 14.9532 24.0837 14.9532H25.2012L25.4991 14.0049L25.797 13.0565H27.7788H29.7607L30.0586 14.0049L30.3564 14.9532H31.4876C32.3397 14.9532 32.604 14.9142 32.5593 14.7951C32.5266 14.7083 31.627 12.2616 30.5604 9.35804L28.6207 4.079H27.769C26.9546 4.079 26.9115 4.0943 26.791 4.42672ZM26.5123 11.1283C26.5125 10.9869 27.0472 9.40558 27.6108 7.87978L27.8184 7.31812L28.4814 9.20744C28.8461 10.2464 29.1188 11.1394 29.0875 11.1915C29.0561 11.2436 28.4639 11.2863 27.7714 11.2863C26.8486 11.2863 26.5123 11.2441 26.5123 11.1283Z" fill="white"/>
<path fill-rule="evenodd" clip-rule="evenodd" d="M15.4937 9.51609V14.9532H16.5702H17.6468V12.9301V10.907L18.565 10.9044C21.2434 10.897 22.615 10.2222 23.1525 8.64717C23.5778 7.40119 23.3375 6.14826 22.4936 5.21118C21.5927 4.21088 21.0718 4.079 18.0219 4.079H15.4937V9.51609ZM17.6468 8.88387V7.42977V5.97566H18.9893H20.3318L20.7624 6.40557C21.1137 6.75633 21.193 6.93209 21.193 7.36022C21.193 8.01735 20.9307 8.53691 20.5 8.73277C20.3135 8.81762 19.6149 8.88387 18.9073 8.88387H17.6468Z" fill="white"/>
</svg>
