<svg width="283" height="44" viewBox="0 0 283 44" fill="none" xmlns="http://www.w3.org/2000/svg">
<g clip-path="url(#clip0_9823_59)">
<path d="M176.407 10.4785C174.315 13.6134 172.305 16.6311 170.29 19.6465C169.212 21.2605 168.104 22.8549 167.06 24.4908C166.651 25.1327 166.138 25.4265 165.403 25.4097C164.834 25.3966 164.263 25.4275 163.696 25.3907C162.811 25.3334 162.57 25.0763 162.57 24.2219C162.566 17.4622 162.567 10.7025 162.57 3.94284C162.571 3.04275 162.666 2.9547 163.55 2.75222C164.493 2.53604 165.425 2.49698 166.371 2.75309C167.197 2.97673 167.214 2.95471 167.215 3.7783C167.221 7.15813 167.22 10.538 167.221 13.9178C167.221 15.0174 167.221 16.117 167.221 17.2879C167.358 17.2118 167.461 17.1897 167.501 17.1273C168.363 15.7974 169.203 14.4525 170.078 13.1315C171.754 10.603 173.449 8.08716 175.137 5.56714C175.529 4.98224 175.991 4.43396 176.307 3.81089C176.707 3.02074 177.364 2.66061 178.157 2.6197C178.924 2.58016 179.704 2.69708 180.468 2.81197C180.635 2.83713 180.822 3.12441 180.888 3.32738C180.962 3.55286 180.911 3.82001 180.911 4.06901C180.911 10.722 180.911 17.3749 180.91 24.0279C180.909 25.0953 180.694 25.3469 179.655 25.3964C178.981 25.4286 178.302 25.4283 177.628 25.3967C176.629 25.3498 176.404 25.0999 176.404 24.1087C176.402 19.8395 176.405 15.5702 176.407 11.301C176.407 11.0544 176.407 10.8078 176.407 10.4785Z" fill="#47A640"/>
<path d="M248.833 14.2802C248.833 17.5525 248.834 20.8249 248.832 24.0972C248.831 25.0649 248.8 25.2013 247.918 25.317C247.011 25.4359 246.074 25.4322 245.161 25.3554C244.473 25.2974 244.324 24.9858 244.323 24.1426C244.321 18.7005 244.321 13.2585 244.321 7.81646C244.32 7.56748 244.332 7.31792 244.319 7.06964C244.291 6.54705 244.215 6.45029 243.69 6.44309C242.481 6.4265 241.272 6.44322 240.062 6.43431C239.616 6.43102 239.476 6.63075 239.416 7.07154C239.083 9.50815 238.777 11.9517 238.33 14.3687C237.828 17.0886 237.323 19.8258 235.992 22.3051C235.255 23.6775 234.289 24.8477 232.699 25.2421C231.854 25.4519 230.969 25.5173 230.099 25.6113C229.61 25.6641 229.272 25.4016 229.181 24.9187C229.091 24.4374 229 23.9419 229.022 23.4574C229.046 22.9027 229.036 22.2335 229.336 21.8383C229.591 21.5024 230.27 21.498 230.753 21.3236C231.317 21.12 231.669 20.6818 231.948 20.1732C232.558 19.0577 232.953 17.8632 233.248 16.6316C233.723 14.6488 234.098 12.6488 234.335 10.6223C234.531 8.94469 234.746 7.26908 234.973 5.59541C235.057 4.97153 235.158 4.34371 235.327 3.73888C235.571 2.86667 235.711 2.77258 236.584 2.77075C240.212 2.76318 243.84 2.76184 247.468 2.77073C248.388 2.77298 248.823 3.21046 248.827 4.14304C248.839 7.09521 248.832 10.0475 248.832 12.9997C248.832 13.4265 248.832 13.8533 248.833 14.2802Z" fill="#47A640"/>
<path d="M67.3861 6.44866C65.8826 6.44866 64.5331 6.43966 63.1839 6.45277C62.5833 6.45861 62.555 6.51231 62.4846 7.12842C62.051 10.9182 61.501 14.6898 60.5488 18.3886C60.1445 19.9593 59.626 21.4911 58.7562 22.8907C57.4455 24.9997 55.4647 25.6684 53.1285 25.6135C52.5613 25.6001 52.2621 25.3325 52.2348 24.7684C52.1953 23.9529 52.21 23.1324 52.2482 22.3163C52.2696 21.8591 52.4746 21.5695 53.0304 21.5151C54.105 21.4098 54.7991 20.7729 55.2627 19.7909C55.9773 18.2772 56.4155 16.6832 56.7031 15.0531C57.1628 12.4466 57.5538 9.82775 57.9521 7.21081C58.0745 6.40695 58.1186 5.59144 58.2133 4.78297C58.25 4.46935 58.3045 4.15408 58.3901 3.85062C58.661 2.89053 58.8105 2.76689 59.7869 2.7648C63.2373 2.75742 66.6876 2.76124 70.138 2.76137C70.3514 2.76137 70.566 2.75235 70.7779 2.77122C71.4652 2.83241 71.8042 3.14974 71.8831 3.82502C71.916 4.10633 71.9057 4.39333 71.9057 4.67774C71.9065 11.116 71.9059 17.5543 71.9056 23.9926C71.9056 24.1705 71.8969 24.3488 71.9072 24.5261C71.9289 24.9029 71.7594 25.1288 71.3961 25.2226C71.2938 25.249 71.1976 25.3372 71.0997 25.3356C70.1132 25.3199 69.1175 25.3659 68.1438 25.2422C67.3955 25.1471 67.4062 25.05 67.3858 24.3454C67.3796 24.1322 67.3853 23.9186 67.3853 23.7052C67.3856 18.334 67.3859 12.9628 67.3861 7.59162C67.3861 7.24296 67.3861 6.89429 67.3861 6.44866Z" fill="white"/>
<path d="M154.362 14.1896C154.362 17.4998 154.363 20.81 154.361 24.1202C154.36 25.068 154.137 25.3419 153.226 25.3907C152.481 25.4305 151.73 25.4304 150.985 25.3888C150.081 25.3383 149.852 25.0576 149.852 24.1205C149.851 18.6035 149.852 13.0865 149.851 7.56954C149.851 6.44251 149.847 6.4408 148.758 6.43818C147.726 6.4357 146.694 6.44434 145.662 6.43368C145.255 6.42948 145.013 6.52272 144.946 7.00132C144.617 9.36979 144.253 11.7335 143.899 14.0986C143.577 16.2542 143.086 18.3721 142.373 20.4307C141.861 21.9067 141.177 23.2911 139.955 24.3424C139.236 24.961 138.411 25.3103 137.48 25.4258C136.886 25.4994 136.291 25.5986 135.695 25.6108C135.012 25.6247 134.72 25.3414 134.694 24.6622C134.664 23.8807 134.698 23.0969 134.7 22.314C134.701 21.864 134.849 21.5854 135.365 21.5459C136.541 21.4559 137.33 20.7825 137.734 19.7195C138.194 18.5097 138.674 17.2885 138.942 16.0291C139.446 13.6607 139.84 11.2668 140.21 8.87281C140.436 7.40994 140.526 5.92634 140.692 4.45371C140.728 4.14242 140.816 3.83521 140.9 3.53171C141.039 3.02827 141.363 2.75445 141.904 2.77092C142.046 2.77525 142.188 2.7666 142.331 2.7666C145.819 2.76669 149.307 2.76383 152.795 2.76931C154.017 2.77124 154.357 3.1163 154.359 4.36578C154.366 7.64037 154.362 10.915 154.362 14.1896Z" fill="#47A640"/>
<path d="M193.93 6.57711C193.93 7.52819 193.93 8.34172 193.93 9.15524C193.93 14.1321 193.932 19.109 193.929 24.0858C193.929 25.0879 193.709 25.3419 192.723 25.3918C192.014 25.4277 191.3 25.4302 190.591 25.3935C189.617 25.3429 189.272 24.9679 189.271 24.007C189.266 17.5371 189.263 11.0672 189.274 4.59732C189.275 4.21829 189.354 3.8248 189.475 3.46432C189.619 3.03547 189.932 2.76183 190.432 2.77362C190.822 2.78285 191.213 2.7675 191.604 2.76741C194.733 2.76671 197.861 2.76405 200.989 2.76907C201.821 2.77041 201.983 2.91161 202.035 3.7284C202.072 4.29488 202.074 4.86665 202.044 5.43353C201.999 6.27367 201.703 6.56491 200.857 6.57203C198.937 6.58819 197.018 6.57711 195.098 6.5771C194.748 6.5771 194.398 6.57711 193.93 6.57711Z" fill="#47A640"/>
<path d="M85.2338 6.44761C85.2338 6.92976 85.2338 7.28256 85.2338 7.63537C85.2337 13.077 85.2338 18.5187 85.2331 23.9603C85.233 25.121 85.0873 25.3344 83.9228 25.3772C83.0459 25.4094 82.1622 25.2939 81.2834 25.2218C80.8581 25.187 80.665 24.9218 80.6931 24.4925C80.7047 24.3154 80.695 24.1369 80.695 23.9591C80.6951 17.5572 80.6951 11.1552 80.6952 4.75329C80.6952 4.61102 80.6923 4.4687 80.6952 4.3265C80.7201 3.12732 81.0831 2.76501 82.3154 2.76268C85.623 2.75644 88.9307 2.75831 92.2383 2.76365C93.1289 2.76509 93.2852 2.90175 93.3381 3.79259C93.374 4.39472 93.3826 5.00402 93.3327 5.60423C93.2748 6.30039 93.0964 6.44143 92.3815 6.44439C90.2476 6.45324 88.1136 6.44759 85.9796 6.4476C85.7719 6.4476 85.5643 6.44761 85.2338 6.44761Z" fill="white"/>
<path d="M115.803 33.9534C115.685 34.5009 115.594 34.7976 115.561 35.1006C115.456 36.0511 115.379 37.0045 115.279 37.9555C115.25 38.2339 115.165 38.5062 115.133 38.7844C115.078 39.2631 114.655 39.1758 114.398 39.1943C114.159 39.2116 114.011 38.9585 114.048 38.6517C114.144 37.8432 114.203 37.0303 114.298 36.2216C114.418 35.2043 114.544 34.1875 114.695 33.1744C114.787 32.5539 114.86 32.477 115.406 32.4818C116.169 32.4886 116.356 32.2705 116.725 33.3352C117.105 34.4343 117.492 35.5312 117.88 36.6275C117.971 36.8837 118.078 37.134 118.204 37.4519C118.691 36.0278 119.142 34.6922 119.606 33.3615C119.894 32.536 120.444 32.2523 121.247 32.4931C121.63 32.6079 121.65 32.9587 121.695 33.2613C121.789 33.8907 121.845 34.5256 121.921 35.1578C122.055 36.2801 122.193 37.4019 122.329 38.5241C122.379 38.9392 122.24 39.1403 121.864 39.2039C121.5 39.2654 121.188 39.0407 121.142 38.6557C120.948 37.0034 120.762 35.3501 120.564 33.6155C120.449 33.9116 120.344 34.1617 120.254 34.4167C119.759 35.812 119.236 37.1984 118.797 38.6112C118.677 38.9964 118.447 39.1881 118.161 39.2043C117.814 39.224 117.566 39.0287 117.43 38.6C116.963 37.124 116.413 35.674 115.803 33.9534Z" fill="white"/>
<path d="M39.2851 37.1114C40.336 35.6805 41.2772 34.3993 42.2178 33.1177C42.3437 32.9461 42.4314 32.6974 42.5998 32.6179C42.8388 32.505 43.16 32.4341 43.4003 32.5036C43.5524 32.5477 43.7107 32.8787 43.7134 33.083C43.7373 34.9332 43.7129 36.7841 43.7379 38.6343C43.7442 39.1002 43.425 39.1599 43.1386 39.214C42.802 39.2777 42.5135 38.9615 42.5115 38.5809C42.5047 37.267 42.5088 35.9531 42.5088 34.4299C41.7112 35.5173 41.0299 36.4466 40.348 37.3755C40.0125 37.8324 39.6856 38.2961 39.335 38.7411C39.211 38.8987 39.0464 39.0467 38.8685 39.1348C38.4952 39.3194 38.0692 39.0768 38.0668 38.6678C38.0548 36.6453 38.0613 34.6226 38.0613 32.52C38.458 32.4953 38.7953 32.4743 39.1741 32.4507C39.3822 33.235 39.2597 33.9782 39.2805 34.7102C39.3016 35.451 39.2851 36.193 39.2851 37.1114Z" fill="white"/>
<path d="M98.98 32.4889H100.114C100.182 33.9765 100.102 35.4509 100.168 37.0699C101.225 35.6247 102.179 34.3072 103.153 33.0041C103.311 32.7927 103.527 32.5581 103.763 32.4856C104.31 32.3177 104.576 32.5299 104.581 33.1035C104.595 34.8831 104.596 36.6629 104.58 38.4424C104.574 39.1092 104.497 39.1355 103.399 39.0391V34.4296C103.091 34.8003 102.901 35.0038 102.739 35.2274C101.949 36.3177 101.161 37.4101 100.383 38.5089C100.047 38.9826 99.6662 39.3025 98.98 39.0173L98.98 32.4889Z" fill="white"/>
<path d="M22.1948 32.4606C22.4832 32.4606 22.6545 32.4535 22.8249 32.4629C22.9585 32.4702 23.0909 32.4981 23.3063 32.5284V37.2099C24.3525 35.7679 25.3397 34.4354 26.2926 33.0789C26.6354 32.5909 27.008 32.3065 27.6873 32.5435C27.7091 32.7462 27.7554 32.9816 27.7563 33.2172C27.7627 34.9928 27.7558 36.7684 27.7645 38.5439C27.7661 38.8563 27.7385 39.0787 27.3565 39.1551C26.8626 39.254 26.5471 39.0685 26.5411 38.5658C26.5293 37.5716 26.5379 36.5772 26.538 35.5829C26.538 35.3403 26.538 35.0977 26.538 34.6419C26.2187 34.9844 26.0217 35.1593 25.8682 35.3665C25.0895 36.418 24.3217 37.4774 23.5514 38.535C23.4683 38.6491 23.4194 38.8224 23.3096 38.8758C23.0479 39.0031 22.7495 39.1727 22.4838 39.1461C22.1083 39.1086 22.1967 38.7265 22.1963 38.4543C22.1935 36.504 22.1948 34.5538 22.1948 32.4606Z" fill="white"/>
<path d="M69.3638 35.7584C70.5376 36.5231 70.7271 37.8469 71.3119 38.9653C70.1382 39.2346 70.0812 39.2104 69.7098 38.3114C69.5214 37.8554 69.3571 37.3879 69.1424 36.9446C68.9887 36.6273 68.7703 36.382 68.3816 36.2632C67.4756 35.9862 67.3061 36.0757 67.2973 37.0026C67.291 37.6707 67.2961 38.3389 67.2961 39.0626H66.1883C66.1868 37.9713 66.1847 36.8841 66.184 35.7969C66.1832 34.7325 66.1838 33.6681 66.1838 32.5308H67.2637V35.0787C68.3072 35.3351 68.7111 35.1835 69.1235 34.3668C69.3138 33.99 69.4489 33.5856 69.6158 33.1966C69.83 32.6974 70.2631 32.4802 70.9149 32.5452C71.0473 33.1829 70.6034 33.6757 70.4003 34.2014C70.193 34.7382 69.7575 35.1869 69.3638 35.7584Z" fill="white"/>
<path d="M49.3177 38.9999V36.6018C48.5964 36.654 47.9134 36.7133 47.2291 36.7505C46.1746 36.8078 45.4514 36.0534 45.3305 35.0079C45.2817 34.5861 45.3076 34.1555 45.3039 33.7288C45.3006 33.345 45.3032 32.9612 45.3032 32.5191H46.4973C46.5102 33.1981 46.5134 33.8627 46.5374 34.5266C46.5732 35.5159 47.1816 36.0111 48.141 35.8335C48.3833 35.7887 48.6227 35.7148 48.8544 35.6295C49.1678 35.5142 49.3771 35.3581 49.3504 34.9375C49.3011 34.1621 49.3363 33.3812 49.3363 32.542C49.5804 32.5101 49.7793 32.476 49.9797 32.4596C50.3942 32.4256 50.5512 32.6567 50.5511 33.0371C50.551 33.4639 50.5487 33.8907 50.5486 34.3175C50.5483 35.598 50.5529 36.8784 50.5475 38.1588C50.5434 39.1499 50.5129 39.1691 49.3177 38.9999Z" fill="white"/>
<path d="M64.3889 37.393C64.5251 38.4535 64.4793 38.5679 63.7383 38.9155C61.39 40.0173 59.6381 38.4452 59.5885 36.5045C59.5678 35.6931 59.5313 34.8868 59.8162 34.0932C60.3879 32.5004 62.52 31.7761 64.0393 32.8142C64.245 32.9547 64.3791 33.2434 64.469 33.4916C64.5131 33.6132 64.4123 33.8277 64.3118 33.9435C64.2647 33.9978 64.0531 33.9423 63.9332 33.894C63.6099 33.7637 63.3066 33.5759 62.976 33.4727C61.9673 33.1579 61.0693 33.6231 60.9057 34.6415C60.7893 35.3663 60.7898 36.1362 60.8933 36.8638C61.056 38.0078 62.144 38.5312 63.2187 38.0501C63.5975 37.8805 63.9465 37.6442 64.3889 37.393Z" fill="white"/>
<path fill-rule="evenodd" clip-rule="evenodd" d="M34.7977 2.51767C36.8334 2.21687 38.8407 2.27731 40.8003 2.8178C44.0545 3.71537 46.016 5.91748 46.8412 9.16809C47.1477 10.3755 47.2563 11.6002 47.3209 12.8433C47.4379 15.0927 47.2142 17.2793 46.4263 19.3969C45.1862 22.7303 42.7806 24.7054 39.3251 25.3996C38.3586 25.5937 37.3595 25.6271 36.3754 25.7339C34.6472 25.7055 32.9826 25.454 31.3884 24.7825C29.4687 23.9738 28.0853 22.6037 27.2399 20.7203C26.4944 19.0593 26.1461 17.2969 26.1153 15.472C26.081 13.4495 26.1051 11.4491 26.7178 9.47691C27.9688 5.45043 30.6109 3.1363 34.7977 2.51767ZM38.4462 6.28554C37.6648 6.11001 36.8237 6.16659 36.0104 6.17372C34.9033 6.1834 33.9609 6.63491 33.1319 7.35629C31.7971 8.5178 31.2618 10.0545 31.0356 11.743C30.8469 13.1509 30.8138 14.5503 30.9927 15.9715C31.1217 16.9965 31.3117 17.9909 31.6822 18.9473C32.0934 20.0089 32.7848 20.8641 33.8324 21.3333C35.3057 21.9932 36.8638 22.0207 38.4039 21.6398C40.5238 21.1154 41.6452 19.577 42.126 17.5648C42.4113 16.3704 42.4963 15.1279 42.5843 14.5148C42.5438 12.4018 42.3996 10.9299 41.9313 9.50588C41.3665 7.78854 40.1933 6.67811 38.4462 6.28554Z" fill="white"/>
<path fill-rule="evenodd" clip-rule="evenodd" d="M5.02707 2.7647C7.23122 2.75995 9.4361 2.75108 11.6398 2.78498C13.029 2.80635 14.3607 3.11357 15.6279 3.7184C17.8738 4.79041 18.6168 7.30779 18.2717 9.35776C18.0025 10.9569 17.1917 12.1775 15.6829 12.8753C15.5872 12.9196 15.5022 12.9872 15.2686 13.1349C18.134 13.6575 19.6104 16.1119 19.686 18.2319C19.8116 21.7536 17.6043 24.0246 14.6527 24.7914C13.5849 25.0688 12.5115 25.2416 11.4069 25.2387C9.27394 25.2332 7.14089 25.2494 5.00795 25.241C3.79939 25.2363 3.42083 24.8573 3.41979 23.6471C3.41427 17.2123 3.41394 10.7772 3.41979 4.34242C3.42091 3.15382 3.81834 2.76736 5.02707 2.7647ZM11.3478 15.4073C10.2524 15.3254 9.14616 15.3853 7.90382 15.3853V21.7837C9.09465 21.7837 10.1913 21.8036 11.2864 21.7744C11.7762 21.7614 12.2735 21.6903 12.75 21.5745C13.9856 21.2743 14.8216 20.2814 14.9407 19.0124C15.0722 17.6107 14.4952 16.3364 13.385 15.9074C12.7362 15.6567 12.0369 15.4589 11.3478 15.4073ZM11.2568 6.23071C10.1771 6.12226 9.07737 6.21042 7.94611 6.21043V11.9778C8.9479 11.9778 9.86801 11.9957 10.7869 11.9738C12.726 11.9275 13.7491 10.8185 13.7292 8.87048C13.7136 7.35484 12.8492 6.3907 11.2568 6.23071Z" fill="white"/>
<path fill-rule="evenodd" clip-rule="evenodd" d="M104.159 2.62358C105.191 2.60638 106.223 2.60659 107.255 2.6201C108.192 2.63241 108.762 3.00136 109.1 3.99387C111.27 10.364 113.519 16.7077 115.732 23.0633C115.893 23.5271 116.027 24.0101 116.095 24.495C116.172 25.0522 116.045 25.3004 115.529 25.3235C114.365 25.3758 113.195 25.3402 112.03 25.2899C111.469 25.2656 111.324 24.7656 111.182 24.3218C110.817 23.1812 110.464 22.0367 110.095 20.8975C109.841 20.1132 109.833 20.1128 109.001 20.1124C106.51 20.111 104.019 20.1124 101.395 20.1124C100.939 21.5216 100.446 22.8776 100.074 24.2661C99.8708 25.0248 99.4136 25.3334 98.7286 25.3751C97.9486 25.4226 97.1613 25.4276 96.3814 25.3815C95.6228 25.3366 95.4569 25.1083 95.5447 24.3484C95.5849 24.0013 95.6775 23.6534 95.7927 23.3223C98.0505 16.8327 100.334 10.3519 102.556 3.85018C102.851 2.98873 103.335 2.63739 104.159 2.62358ZM102.429 16.5548C104.071 16.7298 107.889 16.6804 108.67 16.4639C107.672 13.3996 106.674 10.3384 105.677 7.27737C105.611 7.27483 105.545 7.27179 105.479 7.26926C104.464 10.3591 103.449 13.4492 102.429 16.5548Z" fill="white"/>
<path fill-rule="evenodd" clip-rule="evenodd" d="M212.217 2.74184C213.628 2.53982 215.026 2.56273 216.436 2.74184C216.959 2.80843 217.279 3.02173 217.451 3.51418C217.855 4.67098 218.284 5.81889 218.687 6.97613C220.415 11.9401 222.135 16.907 223.861 21.8715C224.068 22.4673 224.295 23.0566 224.511 23.6491C224.559 23.7805 224.624 23.9096 224.649 24.0454C224.844 25.0786 224.597 25.3744 223.518 25.4036C223.163 25.4132 222.807 25.4053 222.451 25.4053V25.3995C222.024 25.3995 221.596 25.4156 221.171 25.3955C220.329 25.3557 220.028 25.1435 219.776 24.3647C219.398 23.1983 219.042 22.0245 218.686 20.8512C218.494 20.2173 218.371 20.1103 217.61 20.1078C215.261 20.1002 212.913 20.1177 210.565 20.091C210.08 20.0855 209.865 20.2918 209.737 20.704C209.385 21.8415 209.034 22.9794 208.669 24.1126C208.321 25.1911 208.134 25.3492 207.042 25.4007C206.368 25.4324 205.689 25.4337 205.015 25.3931C204.196 25.3438 203.968 25.0802 204.167 24.2407C204.408 23.2215 204.748 22.2227 205.089 21.2301C206.488 17.1542 207.903 13.0838 209.315 9.01217C209.877 7.39102 210.444 5.77111 211.014 4.15269C211.107 3.88741 211.233 3.6335 211.336 3.37165C211.495 2.96976 211.768 2.80614 212.217 2.74184ZM211.014 16.5885H217.274C216.266 13.362 215.255 10.2309 214.123 7.01611C213.062 10.2809 212.049 13.4033 211.014 16.5885Z" fill="#47A640"/>
<path fill-rule="evenodd" clip-rule="evenodd" d="M93.3991 29.4847C93.7523 29.4794 93.913 29.6838 93.9165 30.0166C93.9229 30.621 93.9301 31.2262 93.9124 31.8302C93.9037 32.1294 94.0168 32.2933 94.3047 32.3522C94.4773 32.3875 94.6485 32.4318 94.8192 32.4756C96.2379 32.8396 97.0928 33.8962 97.1722 35.3721C97.2315 36.4768 97.0226 37.4879 96.1901 38.2917C95.7754 38.692 95.3227 39.0105 94.7311 39.1058C94.4623 39.149 94.2059 39.2693 93.9165 39.3636C93.9165 39.9022 93.9267 40.3963 93.9142 40.8897C93.897 41.566 93.7894 41.6725 93.2015 41.6511C92.7415 41.6343 92.7143 41.6002 92.7015 40.9407C92.6918 40.4437 92.6923 39.9464 92.6847 39.4493C92.6842 39.4188 92.65 39.3886 92.6314 39.3584C90.2208 38.6674 89.4256 37.8892 89.3693 35.9897C89.3521 35.4104 89.5303 34.8037 89.7233 34.2457C89.9356 33.6319 90.3647 33.1302 90.9691 32.8534C91.5061 32.6074 92.0759 32.4325 92.7131 32.1958V29.5345C92.992 29.5133 93.1955 29.4878 93.3991 29.4847ZM92.6586 33.398C90.9749 33.3552 90.4969 34.8264 90.5977 36.0876C90.6484 36.7222 90.8089 37.3525 91.3352 37.7807C91.7084 38.0841 92.1305 38.3258 92.6586 38.1897V33.398ZM93.8591 38.1497C94.9517 38.1918 95.7488 37.5943 95.883 36.5848C95.9521 36.0639 95.949 35.5184 95.8801 34.9972C95.7465 33.9879 94.977 33.4078 93.8591 33.4229V38.1497Z" fill="white"/>
<path fill-rule="evenodd" clip-rule="evenodd" d="M9.74337 32.2996C11.2028 32.3031 12.2564 33.1305 12.6004 34.5042C12.9066 35.7268 12.8116 36.8857 12.1213 37.9598C11.4031 39.0771 10.3115 39.4128 9.07705 39.2374C7.847 39.0626 7.01227 38.3791 6.79651 37.0762C6.75172 36.8057 6.63013 36.5477 6.53694 36.2621H5.42158C5.20192 37.0139 5.36817 37.7947 5.31729 38.5606C5.28701 39.0153 5.00099 39.3012 4.5965 39.1997C4.34166 39.1358 4.07828 39.0503 4.08257 38.6475C4.10444 36.6269 4.09242 34.6058 4.09242 32.5093C4.50803 32.4908 4.84511 32.4755 5.28194 32.456V35.1885H6.60067C6.66916 34.976 6.76274 34.7214 6.83301 34.4608C7.19359 33.1235 8.30392 32.2962 9.74337 32.2996ZM9.81927 33.3205C8.99375 33.2676 8.41643 33.6133 8.0967 34.4283C7.74979 35.3126 7.77327 36.2245 8.06715 37.1191C8.33971 37.9487 8.77098 38.2388 9.6385 38.2431C10.4147 38.2469 11.0708 37.8495 11.2933 37.1648C11.4332 36.7341 11.5169 36.3361 11.5071 35.7893C11.4991 35.3443 11.4425 35.0466 11.3501 34.6734C11.1391 33.8215 10.6199 33.3718 9.81927 33.3205Z" fill="white"/>
<path fill-rule="evenodd" clip-rule="evenodd" d="M35.0052 32.4711C35.4773 32.4679 35.6125 32.7268 35.6101 33.1461C35.6037 34.249 35.609 35.3521 35.6095 36.4551C35.6097 36.9487 35.6095 37.4426 35.6095 37.9986C35.8517 38.0302 36.0501 38.055 36.248 38.0815C36.5808 38.1262 36.732 38.2991 36.7254 38.6528C36.7091 39.535 36.7202 40.4178 36.7202 41.3575H35.7231V39.1447H30.1411V41.2937C29.8801 41.3417 29.6845 41.395 29.4863 41.4096C29.2424 41.4275 29.0751 41.3207 29.0744 41.048C29.0723 40.2298 29.055 39.4107 29.0871 38.5937C29.0938 38.4266 29.2742 38.1395 29.4006 38.1244C30.2182 38.0266 30.3759 37.3461 30.5501 36.7767C30.8372 35.8382 31.0038 34.8618 31.2078 33.8988C31.3013 33.457 31.3628 33.0084 31.454 32.474C32.6734 32.474 33.8394 32.479 35.0052 32.4711ZM32.4946 33.5042C32.082 35.0114 32.0774 36.6448 31.0548 38.1464H34.3261V33.5042H32.4946Z" fill="white"/>
<path fill-rule="evenodd" clip-rule="evenodd" d="M17.1265 32.4519C17.9979 32.0077 19.4227 32.5588 19.8752 33.6078C20.495 35.045 20.5286 36.5036 19.8485 37.9145C19.1767 39.3081 17.5241 39.6732 16.2579 38.7761C16.1261 38.6827 15.9978 38.5838 15.7736 38.4181V41.5689H14.5806V32.6182C15.1755 32.4536 15.5367 32.6558 15.6646 33.2243C16.1426 32.9711 16.6312 32.7045 17.1265 32.4519ZM18.9226 34.4903C18.6165 33.2996 17.4835 32.9929 16.5117 33.7596C16.0216 34.1464 15.6201 34.5774 15.7492 35.2823C15.7807 35.4544 15.7539 35.6374 15.7539 35.9938C15.6155 36.6904 15.7927 37.4138 16.612 37.9238C17.5454 38.5049 18.4154 38.2483 18.8282 37.2106C19.1841 36.3155 19.1513 35.38 18.9226 34.4903Z" fill="white"/>
<path fill-rule="evenodd" clip-rule="evenodd" d="M109.379 32.4495C110.327 31.9623 111.772 32.7322 112.137 33.6147C112.783 35.1765 112.773 36.718 111.908 38.1885C111.3 39.2207 109.883 39.5728 108.838 39.0119C108.625 38.8977 108.436 38.7405 108.147 38.5426C108.086 38.8196 108.016 39.0028 108.01 39.188C107.993 39.6844 108.004 40.1819 108.001 40.6788C107.998 41.3562 107.608 41.6453 106.831 41.5462V32.5643C107.436 32.4914 107.798 32.7103 107.915 33.2207C108.394 32.9682 108.884 32.7041 109.379 32.4495ZM111.04 34.1906C110.812 33.5415 110.114 33.2101 109.505 33.3557C108.535 33.588 107.912 34.3925 107.905 35.4213C107.904 35.6686 107.94 35.9222 107.899 36.1624C107.737 37.0976 108.292 37.6103 108.989 38.0211C109.766 38.4791 110.678 38.2107 111.022 37.3832C111.22 36.9075 111.271 36.3707 111.388 35.8617C111.272 35.28 111.223 34.7116 111.04 34.1906Z" fill="white"/>
<path fill-rule="evenodd" clip-rule="evenodd" d="M52.6982 33.9621C53.5317 32.0561 56.2795 31.734 57.5467 33.334C58.0908 34.0211 58.1541 34.8289 58.0716 35.6464C58.032 36.0386 57.6675 36.0717 57.3283 36.0688C56.4415 36.0613 55.5544 36.0656 54.6676 36.0653C54.3521 36.0653 54.0366 36.0653 53.6473 36.0653C53.6 37.6529 54.1753 38.2924 55.6063 38.2509C56.1593 38.2348 56.7137 38.079 57.2553 37.9397C57.4654 37.8857 57.6858 37.7372 57.797 37.9872C57.871 38.1536 57.822 38.3999 57.7634 38.5904C57.7289 38.7026 57.5822 38.8152 57.4609 38.8604C56.2762 39.3015 55.0755 39.5087 53.8738 38.9386C53.243 38.6393 52.7853 38.138 52.5725 37.4739C52.1951 36.2959 52.1944 35.1144 52.6982 33.9621ZM55.4388 33.2911C54.2739 33.2463 53.7121 33.8064 53.6247 35.1481H56.8294C56.8309 33.8265 56.4455 33.3299 55.4388 33.2911Z" fill="white"/>
<path fill-rule="evenodd" clip-rule="evenodd" d="M82.507 32.3397C82.8814 32.301 83.2712 32.4396 83.656 32.4608C84.0836 32.4843 84.3213 32.6701 84.3217 33.1091C84.3234 34.959 84.3265 36.8089 84.3182 38.6587C84.3168 38.9734 84.0004 39.2833 83.7116 39.2126C83.4411 39.1462 83.0686 39.1389 83.091 38.6558C83.1254 37.915 83.0997 37.1715 83.0997 36.3631C81.4765 36.2735 81.2636 36.411 80.694 37.8116C80.5744 38.1057 80.3867 38.3819 80.3203 38.6859C80.2314 39.0927 79.9221 39.1678 79.6227 39.2253C79.1808 39.3103 78.9063 39.0014 79.0821 38.6013C79.477 37.7027 79.7203 36.7148 80.5747 36.0305C80.2883 35.8652 80.0263 35.7657 79.8307 35.5919C79.035 34.8846 79.1663 33.5333 80.0677 32.9197C80.8073 32.4161 81.6738 32.426 82.507 32.3397ZM82.0684 33.3055C81.8914 33.3073 81.712 33.3023 81.5376 33.327C80.8971 33.4176 80.5401 33.777 80.5162 34.338C80.4948 34.8405 80.7767 35.2463 81.3893 35.3659C81.9255 35.4705 82.4895 35.4344 83.0702 35.4615V33.305C82.6933 33.305 82.3807 33.3025 82.0684 33.3055Z" fill="white"/>
<path fill-rule="evenodd" clip-rule="evenodd" d="M73.1756 32.7304C74.1027 32.3337 75.0582 32.1303 76.0605 32.4783C76.7066 32.7027 77.1735 33.0953 77.3091 33.7866C77.3899 34.1991 77.4518 34.6218 77.4597 35.041C77.4805 36.1434 77.4695 37.2467 77.4667 38.3495C77.4652 38.9354 77.3148 39.2039 76.958 39.2249C76.4397 39.2554 76.4681 38.8286 76.3936 38.5163C75.9873 38.7245 75.5887 38.9444 75.1774 39.1363C74.2071 39.5889 72.5025 38.927 72.3245 37.8657C72.1785 36.9952 72.3666 36.2173 73.1235 35.7514C73.6069 35.4538 74.135 35.2485 74.7226 35.2554C75.2119 35.2612 75.7016 35.2566 76.2557 35.2566C76.2372 34.8407 76.2693 34.5206 76.1995 34.2247C76.0619 33.6415 75.6625 33.2991 75.0523 33.3237C74.5337 33.3446 74.0153 33.4837 73.5076 33.6128C73.2466 33.6792 73.0088 33.8379 72.748 33.961C72.5722 33.055 72.5749 32.9874 73.1756 32.7304ZM76.2575 36.099C75.7041 36.099 75.2771 36.0487 74.8686 36.1141C74.503 36.1726 74.1036 36.2868 73.8153 36.504C73.2493 36.9306 73.379 37.8843 73.9926 38.1855C74.9497 38.6552 76.2406 37.8701 76.2575 36.8071C76.2607 36.603 76.2575 36.3987 76.2575 36.099Z" fill="white"/>
<path fill-rule="evenodd" clip-rule="evenodd" d="M124.619 32.7552C125.574 32.3132 126.568 32.1482 127.592 32.4904C128.196 32.6921 128.636 33.0888 128.783 33.7298C128.869 34.1048 128.938 34.4923 128.943 34.8753C128.963 36.2217 128.951 37.5689 128.951 38.9838C128.348 39.0904 127.988 38.9338 127.872 38.5145C127.472 38.7212 127.084 38.9699 126.662 39.1304C125.437 39.5965 124.11 38.9537 123.798 37.7735C123.582 36.9584 123.901 36.1063 124.68 35.7108C125.137 35.4781 125.668 35.351 126.18 35.2739C126.659 35.2018 127.158 35.2582 127.722 35.2583C127.722 34.8998 127.762 34.6205 127.714 34.3573C127.588 33.6638 127.177 33.3606 126.466 33.2999C125.647 33.2299 124.981 33.6599 124.268 33.9407C124.018 33.0984 124.023 33.0313 124.619 32.7552ZM127.739 36.103C127.185 36.103 126.729 36.0579 126.286 36.1175C125.953 36.1624 125.59 36.277 125.324 36.4739C124.714 36.9257 124.859 37.939 125.536 38.2144C126.567 38.6337 127.726 37.861 127.738 36.745C127.74 36.572 127.739 36.3987 127.739 36.103Z" fill="white"/>
</g>
<defs>
<clipPath id="clip0_9823_59">
<rect width="283.01" height="44" fill="white"/>
</clipPath>
</defs>
</svg>
