<svg width="315" height="49" viewBox="0 0 315 49" fill="none" xmlns="http://www.w3.org/2000/svg">
<g clip-path="url(#clip0_9854_5195)">
<path d="M196.347 11.5854C194.019 15.0515 191.781 18.388 189.539 21.7221C188.339 23.5066 187.105 25.2694 185.944 27.0781C185.488 27.7878 184.918 28.1127 184.099 28.0941C183.466 28.0797 182.83 28.1138 182.199 28.0731C181.215 28.0097 180.946 27.7255 180.946 26.7808C180.942 19.307 180.943 11.8331 180.946 4.35924C180.947 3.36405 181.053 3.2667 182.037 3.04283C183.086 2.80381 184.124 2.76062 185.177 3.04379C186.097 3.29106 186.115 3.26672 186.117 4.17731C186.123 7.91422 186.122 11.6511 186.123 15.3881C186.123 16.6039 186.123 17.8196 186.123 19.1142C186.276 19.0301 186.39 19.0057 186.435 18.9367C187.394 17.4662 188.329 15.9792 189.303 14.5187C191.168 11.7231 193.055 8.94141 194.934 6.15514C195.37 5.50845 195.885 4.90224 196.236 4.21335C196.681 3.33971 197.413 2.94154 198.295 2.89631C199.148 2.85259 200.017 2.98186 200.867 3.1089C201.054 3.13671 201.261 3.45434 201.335 3.67875C201.417 3.92806 201.361 4.22343 201.361 4.49874C201.361 11.8546 201.36 19.2104 201.359 26.5663C201.359 27.7465 201.118 28.0247 199.963 28.0794C199.212 28.115 198.457 28.1147 197.706 28.0797C196.595 28.0279 196.344 27.7515 196.344 26.6557C196.342 21.9354 196.345 17.2151 196.347 12.4948C196.347 12.2221 196.347 11.9495 196.347 11.5854Z" fill="#47A640"/>
<path d="M276.959 15.7889C276.959 19.407 276.961 23.025 276.958 26.6431C276.958 27.713 276.923 27.8639 275.942 27.9918C274.933 28.1233 273.889 28.1191 272.873 28.0342C272.107 27.9701 271.941 27.6256 271.941 26.6933C271.938 20.6763 271.938 14.6593 271.937 8.64228C271.937 8.36699 271.95 8.09108 271.935 7.81656C271.905 7.23876 271.82 7.13177 271.236 7.12381C269.89 7.10548 268.544 7.12396 267.198 7.1141C266.702 7.11047 266.545 7.3313 266.478 7.81866C266.107 10.5127 265.767 13.2144 265.27 15.8868C264.711 18.894 264.149 21.9204 262.668 24.6617C261.847 26.1791 260.772 27.4729 259.002 27.909C258.061 28.141 257.077 28.2133 256.108 28.3172C255.564 28.3755 255.187 28.0853 255.087 27.5514C254.986 27.0193 254.886 26.4713 254.909 25.9358C254.936 25.3224 254.925 24.5825 255.259 24.1455C255.543 23.7742 256.299 23.7693 256.837 23.5765C257.464 23.3513 257.856 22.8668 258.166 22.3045C258.846 21.0711 259.285 19.7505 259.613 18.3888C260.142 16.1965 260.56 13.9852 260.823 11.7445C261.042 9.88971 261.28 8.03707 261.533 6.18658C261.627 5.49678 261.739 4.80263 261.928 4.1339C262.199 3.16955 262.355 3.06551 263.327 3.06349C267.365 3.05512 271.403 3.05363 275.441 3.06347C276.465 3.06596 276.949 3.54966 276.953 4.58076C276.967 7.84484 276.959 11.109 276.959 14.3731C276.959 14.845 276.959 15.317 276.959 15.7889Z" fill="#47A640"/>
<path d="M75.0033 7.13002C73.3298 7.13002 71.8278 7.12007 70.326 7.13456C69.6576 7.14102 69.6261 7.2004 69.5476 7.8816C69.0651 12.0718 68.4529 16.2419 67.3931 20.3314C66.9431 22.068 66.3659 23.7617 65.3978 25.3092C63.939 27.641 61.7343 28.3804 59.1341 28.3196C58.5027 28.3049 58.1697 28.009 58.1393 27.3853C58.0954 26.4836 58.1117 25.5764 58.1542 24.6741C58.1781 24.1685 58.4062 23.8484 59.0249 23.7882C60.2208 23.6719 60.9934 22.9676 61.5094 21.8819C62.3049 20.2083 62.7926 18.4459 63.1126 16.6435C63.6243 13.7617 64.0595 10.8661 64.5029 7.9727C64.6391 7.0839 64.6882 6.18223 64.7935 5.28835C64.8344 4.9416 64.8951 4.59302 64.9904 4.2575C65.2919 3.19596 65.4582 3.05926 66.5451 3.05695C70.3854 3.04879 74.2258 3.05302 78.0662 3.05316C78.3037 3.05317 78.5426 3.04319 78.7785 3.06405C79.5435 3.13171 79.9207 3.48257 80.0085 4.22919C80.0451 4.54022 80.0337 4.85754 80.0337 5.172C80.0346 12.2905 80.034 19.409 80.0336 26.5275C80.0336 26.7242 80.024 26.9214 80.0354 27.1174C80.0596 27.534 79.8709 27.7837 79.4665 27.8874C79.3527 27.9166 79.2456 28.0142 79.1366 28.0124C78.0387 27.995 76.9304 28.0459 75.8466 27.9091C75.0137 27.8039 75.0256 27.6966 75.0029 26.9176C74.996 26.6818 75.0024 26.4457 75.0024 26.2097C75.0027 20.271 75.003 14.3324 75.0032 8.39373C75.0033 8.00824 75.0033 7.62274 75.0033 7.13002Z" fill="#1B2F4D"/>
<path d="M171.81 15.6887C171.811 19.3486 171.812 23.0086 171.81 26.6685C171.809 27.7164 171.56 28.0193 170.547 28.0732C169.717 28.1172 168.881 28.1171 168.052 28.0711C167.045 28.0153 166.791 27.7049 166.791 26.6689C166.789 20.569 166.791 14.4691 166.79 8.36922C166.79 7.12312 166.786 7.12123 165.574 7.11833C164.425 7.11559 163.276 7.12514 162.127 7.11336C161.674 7.10872 161.404 7.2118 161.33 7.74097C160.964 10.3597 160.559 12.9731 160.165 15.5881C159.807 17.9714 159.26 20.3131 158.466 22.5892C157.897 24.2211 157.135 25.7518 155.775 26.9141C154.974 27.5982 154.057 27.9844 153.021 28.112C152.36 28.1934 151.697 28.3031 151.034 28.3165C150.273 28.3319 149.948 28.0187 149.919 27.2677C149.886 26.4036 149.924 25.537 149.926 24.6715C149.927 24.1739 150.092 23.8659 150.666 23.8222C151.975 23.7226 152.854 22.9782 153.303 21.8028C153.815 20.4652 154.35 19.115 154.648 17.7225C155.209 15.104 155.647 12.4571 156.059 9.81019C156.311 8.19276 156.411 6.55241 156.596 4.92421C156.635 4.58002 156.733 4.24036 156.826 3.90479C156.981 3.34816 157.342 3.04541 157.944 3.06362C158.102 3.06841 158.261 3.05884 158.419 3.05884C162.302 3.05894 166.184 3.05578 170.067 3.06185C171.427 3.06397 171.805 3.44549 171.808 4.82698C171.815 8.44754 171.81 12.0681 171.81 15.6887Z" fill="#47A640"/>
<path d="M215.851 7.27177C215.851 8.32334 215.851 9.22281 215.851 10.1223C215.851 15.625 215.852 21.1276 215.85 26.6303C215.849 27.7383 215.604 28.019 214.507 28.0743C213.718 28.114 212.923 28.1167 212.134 28.0761C211.05 28.0202 210.666 27.6056 210.665 26.5432C210.66 19.3897 210.656 12.2362 210.668 5.08282C210.669 4.66374 210.757 4.22868 210.892 3.83011C211.053 3.35595 211.401 3.0534 211.957 3.06644C212.392 3.07664 212.827 3.05967 213.262 3.05958C216.744 3.0588 220.226 3.05586 223.708 3.06141C224.633 3.06289 224.814 3.21901 224.872 4.12209C224.913 4.74842 224.915 5.3806 224.882 6.00737C224.832 6.93627 224.502 7.25828 223.56 7.26616C221.424 7.28402 219.287 7.27177 217.151 7.27176C216.761 7.27176 216.372 7.27177 215.851 7.27177Z" fill="#47A640"/>
<path d="M94.8684 7.12887C94.8684 7.66197 94.8684 8.05204 94.8684 8.44212C94.8683 14.4587 94.8685 20.4753 94.8677 26.4918C94.8676 27.7752 94.7053 28.0111 93.4093 28.0584C92.4332 28.094 91.4497 27.9663 90.4715 27.8866C89.9982 27.8481 89.7832 27.5549 89.8145 27.0802C89.8274 26.8844 89.8166 26.6871 89.8166 26.4905C89.8167 19.4122 89.8168 12.3339 89.8168 5.25555C89.8168 5.09825 89.8135 4.94089 89.8168 4.78367C89.8446 3.45779 90.2486 3.0572 91.6201 3.05463C95.3017 3.04773 98.9832 3.0498 102.665 3.0557C103.656 3.05729 103.83 3.20839 103.889 4.19335C103.929 4.8591 103.938 5.53277 103.883 6.19639C103.818 6.9661 103.62 7.12204 102.824 7.12532C100.449 7.1351 98.0738 7.12885 95.6986 7.12887C95.4674 7.12887 95.2363 7.12887 94.8684 7.12887Z" fill="#1B2F4D"/>
<path d="M128.893 37.5406C128.761 38.1459 128.66 38.4739 128.623 38.8089C128.507 39.8598 128.421 40.914 128.31 41.9655C128.278 42.2732 128.183 42.5743 128.147 42.8819C128.086 43.4112 127.615 43.3146 127.33 43.3351C127.063 43.3543 126.898 43.0744 126.939 42.7352C127.047 41.8413 127.113 40.9425 127.218 40.0484C127.351 38.9236 127.492 37.7993 127.66 36.6792C127.762 35.9932 127.844 35.9081 128.451 35.9135C129.301 35.921 129.509 35.6798 129.919 36.857C130.343 38.0722 130.773 39.285 131.205 40.4972C131.306 40.7805 131.426 41.0572 131.565 41.4086C132.108 39.8341 132.609 38.3574 133.126 36.8861C133.447 35.9734 134.059 35.6597 134.953 35.9259C135.379 36.0529 135.401 36.4407 135.451 36.7753C135.555 37.4712 135.618 38.1732 135.702 38.8722C135.852 40.113 136.005 41.3534 136.156 42.5941C136.212 43.0531 136.058 43.2754 135.639 43.3457C135.234 43.4137 134.886 43.1654 134.836 42.7396C134.62 40.9127 134.413 39.0848 134.192 37.1669C134.064 37.4944 133.948 37.7708 133.847 38.0528C133.297 39.5955 132.714 41.1284 132.225 42.6904C132.092 43.1164 131.837 43.3282 131.518 43.3462C131.131 43.368 130.856 43.1521 130.705 42.678C130.184 41.0461 129.573 39.443 128.893 37.5406Z" fill="#1B2F4D"/>
<path d="M43.7259 41.0321C44.8956 39.4499 45.9431 38.0334 46.99 36.6164C47.1302 36.4267 47.2278 36.1517 47.4152 36.0637C47.6813 35.9389 48.0388 35.8605 48.3062 35.9374C48.4756 35.9862 48.6518 36.3521 48.6547 36.578C48.6814 38.6237 48.6541 40.6701 48.682 42.7158C48.689 43.2309 48.3337 43.2969 48.0149 43.3568C47.6403 43.4272 47.3191 43.0776 47.317 42.6568C47.3094 41.2041 47.314 39.7514 47.314 38.0673C46.4262 39.2696 45.6678 40.297 44.9089 41.324C44.5355 41.8293 44.1716 42.3419 43.7815 42.834C43.6433 43.0081 43.4602 43.1718 43.2621 43.2692C42.8467 43.4733 42.3726 43.2051 42.3699 42.7529C42.3565 40.5166 42.3638 38.2803 42.3638 35.9555C42.8053 35.9282 43.1807 35.905 43.6023 35.8789C43.834 36.7461 43.6976 37.5678 43.7207 38.3771C43.7442 39.1963 43.7259 40.0166 43.7259 41.0321Z" fill="#1B2F4D"/>
<path d="M110.168 35.9214H111.43C111.506 37.566 111.417 39.1962 111.49 40.9863C112.667 39.3884 113.729 37.9317 114.812 36.4909C114.988 36.2573 115.229 35.9978 115.492 35.9177C116.1 35.732 116.397 35.9666 116.402 36.6009C116.417 38.5684 116.419 40.5363 116.401 42.5038C116.394 43.2411 116.309 43.2701 115.087 43.1636V38.067C114.744 38.4769 114.533 38.7019 114.352 38.9491C113.473 40.1547 112.596 41.3624 111.729 42.5773C111.356 43.1011 110.932 43.4548 110.168 43.1394L110.168 35.9214Z" fill="#1B2F4D"/>
<path d="M24.7039 35.8901C25.025 35.8901 25.2156 35.8822 25.4053 35.8926C25.5539 35.9007 25.7013 35.9315 25.9411 35.965V41.1411C27.1055 39.5468 28.2043 38.0735 29.2649 36.5736C29.6464 36.0342 30.0611 35.7197 30.8173 35.9817C30.8415 36.2059 30.8931 36.4661 30.894 36.7266C30.9012 38.6898 30.8936 40.653 30.9032 42.6161C30.9049 42.9614 30.8743 43.2073 30.4491 43.2919C29.8993 43.4012 29.5482 43.1961 29.5415 42.6403C29.5283 41.5411 29.5379 40.4416 29.5381 39.3422C29.5381 39.074 29.5381 38.8057 29.5381 38.3019C29.1827 38.6805 28.9634 38.8739 28.7926 39.103C27.9258 40.2655 27.0713 41.437 26.2138 42.6063C26.1214 42.7324 26.0669 42.924 25.9448 42.983C25.6534 43.1238 25.3213 43.3113 25.0256 43.2819C24.6077 43.2404 24.706 42.8179 24.7056 42.517C24.7024 40.3607 24.7039 38.2044 24.7039 35.8901Z" fill="#1B2F4D"/>
<path d="M77.2047 39.5364C78.5112 40.3819 78.7221 41.8456 79.3731 43.0821C78.0667 43.3799 78.0032 43.3531 77.5899 42.3592C77.3802 41.8549 77.1972 41.338 76.9583 40.848C76.7872 40.4971 76.5441 40.2259 76.1114 40.0945C75.1031 39.7882 74.9144 39.8872 74.9047 40.9121C74.8976 41.6507 74.9033 42.3895 74.9033 43.1897H73.6702C73.6686 41.9831 73.6663 40.781 73.6655 39.579C73.6646 38.4021 73.6653 37.2253 73.6653 35.9678H74.8672V38.7849C76.0287 39.0683 76.4782 38.9008 76.9373 37.9978C77.1491 37.5812 77.2994 37.134 77.4852 36.7039C77.7236 36.152 78.2056 35.9119 78.9312 35.9837C79.0786 36.6888 78.5844 37.2336 78.3584 37.8149C78.1277 38.4085 77.6429 38.9045 77.2047 39.5364Z" fill="#1B2F4D"/>
<path d="M54.8924 43.1202V40.4688C54.0896 40.5264 53.3293 40.592 52.5677 40.6331C51.3941 40.6965 50.589 39.8623 50.4545 38.7064C50.4002 38.2401 50.429 37.7639 50.4249 37.2922C50.4212 36.8679 50.4241 36.4435 50.4241 35.9547H51.7532C51.7675 36.7054 51.7712 37.4402 51.7979 38.1743C51.8377 39.2681 52.5148 39.8156 53.5827 39.6193C53.8524 39.5697 54.1189 39.488 54.3768 39.3937C54.7256 39.2662 54.9586 39.0936 54.9288 38.6286C54.874 37.7712 54.9132 36.9079 54.9132 35.98C55.1848 35.9447 55.4062 35.9071 55.6292 35.8889C56.0906 35.8513 56.2653 36.1069 56.2653 36.5275C56.2651 36.9993 56.2625 37.4712 56.2624 37.9431C56.2622 39.3588 56.2672 40.7745 56.2613 42.1902C56.2567 43.2861 56.2227 43.3073 54.8924 43.1202Z" fill="#1B2F4D"/>
<path d="M71.667 41.3438C71.8186 42.5163 71.7676 42.6428 70.9429 43.0272C68.3291 44.2454 66.3792 42.5073 66.324 40.3614C66.3009 39.4643 66.2603 38.5728 66.5774 37.6954C67.2138 35.9343 69.5868 35.1335 71.2778 36.2812C71.5068 36.4367 71.6561 36.7559 71.7561 37.0302C71.8052 37.1647 71.693 37.4018 71.5812 37.5299C71.5287 37.5899 71.2932 37.5286 71.1598 37.4752C70.7999 37.331 70.4623 37.1235 70.0944 37.0094C68.9717 36.6613 67.9721 37.1756 67.79 38.3016C67.6605 39.103 67.661 39.9542 67.7762 40.7587C67.9574 42.0236 69.1683 42.6023 70.3645 42.0704C70.7862 41.8829 71.1745 41.6216 71.667 41.3438Z" fill="#1B2F4D"/>
<path fill-rule="evenodd" clip-rule="evenodd" d="M38.7314 2.78355C40.9972 2.45098 43.2314 2.5178 45.4125 3.11539C49.0346 4.10779 51.2178 6.54255 52.1363 10.1366C52.4774 11.4716 52.5983 12.8257 52.6702 14.2001C52.8004 16.6871 52.5514 19.1047 51.6745 21.4461C50.2941 25.1317 47.6167 27.3155 43.7706 28.0829C42.6948 28.2976 41.5828 28.3345 40.4874 28.4526C38.5639 28.4212 36.7111 28.1432 34.9368 27.4007C32.8001 26.5065 31.2603 24.9917 30.3193 22.9093C29.4895 21.0728 29.1019 19.1242 29.0675 17.1065C29.0295 14.8704 29.0563 12.6585 29.7382 10.478C31.1306 6.02616 34.0714 3.46754 38.7314 2.78355ZM42.7923 6.9495C41.9226 6.75543 40.9864 6.81798 40.0811 6.82586C38.8489 6.83657 37.8 7.33578 36.8773 8.13337C35.3916 9.4176 34.7959 11.1166 34.544 12.9835C34.3341 14.5402 34.2972 16.0874 34.4963 17.6588C34.6399 18.7921 34.8514 19.8915 35.2637 20.949C35.7214 22.1227 36.4909 23.0683 37.657 23.5871C39.2968 24.3166 41.0311 24.3471 42.7452 23.926C45.1048 23.3462 46.353 21.6452 46.8881 19.4205C47.2057 18.0998 47.3003 16.7261 47.3982 16.0482C47.3531 13.712 47.1926 12.0845 46.6714 10.5101C46.0427 8.61129 44.7369 7.38355 42.7923 6.9495Z" fill="#1B2F4D"/>
<path fill-rule="evenodd" clip-rule="evenodd" d="M5.59546 3.05694C8.04876 3.05169 10.5029 3.04189 12.9557 3.07936C14.5019 3.103 15.9841 3.44267 17.3945 4.1114C19.8944 5.29668 20.7213 8.08002 20.3372 10.3466C20.0376 12.1146 19.1351 13.4642 17.4558 14.2358C17.3493 14.2848 17.2546 14.3595 16.9947 14.5228C20.184 15.1006 21.8273 17.8143 21.9114 20.1583C22.0512 24.0521 19.5944 26.563 16.3092 27.4108C15.1207 27.7175 13.9258 27.9085 12.6964 27.9053C10.3224 27.8992 7.94822 27.9172 5.57418 27.9079C4.22901 27.9027 3.80766 27.4836 3.80651 26.1456C3.80036 19.0309 3.79999 11.916 3.80651 4.80135C3.80775 3.48717 4.2501 3.05988 5.59546 3.05694ZM12.6307 17.0353C11.4114 16.9447 10.1802 17.0109 8.79739 17.0109V24.0853C10.1228 24.0853 11.3434 24.1074 12.5623 24.0751C13.1075 24.0606 13.661 23.9821 14.1913 23.8541C15.5666 23.5221 16.4971 22.4243 16.6297 21.0212C16.776 19.4715 16.1338 18.0626 14.8981 17.5881C14.176 17.311 13.3977 17.0923 12.6307 17.0353ZM12.5294 6.88914C11.3276 6.76924 10.1036 6.86671 8.84446 6.86671V13.2435C9.95949 13.2435 10.9836 13.2632 12.0064 13.239C14.1646 13.1878 15.3034 11.9616 15.2812 9.80781C15.2639 8.13204 14.3017 7.06603 12.5294 6.88914Z" fill="#1B2F4D"/>
<path fill-rule="evenodd" clip-rule="evenodd" d="M115.933 2.90092C117.081 2.88191 118.23 2.88214 119.379 2.89708C120.422 2.91068 121.055 3.31862 121.432 4.41599C123.848 11.4591 126.35 18.4731 128.813 25.5001C128.993 26.0129 129.142 26.5469 129.217 27.0831C129.304 27.6992 129.162 27.9736 128.588 27.9992C127.292 28.057 125.99 28.0176 124.693 27.962C124.068 27.9352 123.908 27.3823 123.75 26.8915C123.343 25.6305 122.951 24.3651 122.54 23.1055C122.257 22.2384 122.248 22.2379 121.322 22.2374C118.55 22.2359 115.777 22.2374 112.856 22.2374C112.349 23.7956 111.799 25.2948 111.386 26.83C111.16 27.6688 110.651 28.01 109.888 28.0562C109.02 28.1087 108.144 28.1142 107.276 28.0632C106.431 28.0136 106.247 27.7612 106.345 26.921C106.389 26.5372 106.492 26.1526 106.621 25.7865C109.133 18.6112 111.675 11.4457 114.148 4.25712C114.476 3.30465 115.015 2.9162 115.933 2.90092ZM114.007 18.304C115.835 18.4975 120.084 18.4429 120.953 18.2034C119.842 14.8154 118.732 11.4309 117.622 8.04639C117.549 8.04359 117.475 8.04023 117.402 8.03742C116.272 11.4537 115.143 14.8703 114.007 18.304Z" fill="#1B2F4D"/>
<path fill-rule="evenodd" clip-rule="evenodd" d="M236.205 3.0317C237.776 2.80834 239.332 2.83367 240.901 3.0317C241.484 3.10533 241.839 3.34117 242.031 3.88565C242.481 5.16466 242.959 6.43385 243.407 7.71336C245.33 13.2018 247.245 18.6935 249.166 24.1824C249.397 24.8412 249.648 25.4927 249.889 26.1479C249.943 26.2932 250.015 26.4358 250.043 26.5861C250.259 27.7284 249.985 28.0554 248.784 28.0877C248.388 28.0983 247.992 28.0896 247.596 28.0896V28.0832C247.121 28.0832 246.645 28.1009 246.171 28.0787C245.234 28.0347 244.9 27.8001 244.619 26.939C244.198 25.6494 243.802 24.3516 243.406 23.0543C243.191 22.3534 243.055 22.2351 242.207 22.2324C239.594 22.224 236.98 22.2433 234.367 22.2138C233.827 22.2077 233.587 22.4358 233.445 22.8916C233.053 24.1492 232.663 25.4074 232.256 26.6604C231.869 27.8528 231.66 28.0276 230.446 28.0845C229.695 28.1196 228.939 28.121 228.189 28.0761C227.278 28.0215 227.024 27.7302 227.245 26.8019C227.514 25.6751 227.892 24.5707 228.271 23.4733C229.829 18.9668 231.404 14.4663 232.976 9.9645C233.601 8.17208 234.232 6.38102 234.866 4.59161C234.97 4.29831 235.11 4.01757 235.225 3.72805C235.402 3.2837 235.706 3.1028 236.205 3.0317ZM234.867 18.3413H241.834C240.712 14.7739 239.586 11.312 238.326 7.75756C237.146 11.3673 236.018 14.8195 234.867 18.3413Z" fill="#47A640"/>
<path fill-rule="evenodd" clip-rule="evenodd" d="M103.957 32.5997C104.35 32.5938 104.529 32.8198 104.533 33.1878C104.54 33.8561 104.548 34.5252 104.528 35.193C104.518 35.5238 104.644 35.705 104.965 35.7702C105.157 35.8091 105.347 35.8582 105.537 35.9066C107.116 36.309 108.068 37.4773 108.156 39.1091C108.222 40.3305 107.99 41.4484 107.063 42.3372C106.602 42.7798 106.098 43.132 105.439 43.2372C105.14 43.2851 104.855 43.4181 104.533 43.5223C104.533 44.1178 104.544 44.6641 104.53 45.2097C104.511 45.9574 104.391 46.0752 103.737 46.0515C103.225 46.0329 103.195 45.9952 103.18 45.2661C103.17 44.7166 103.17 44.1667 103.162 43.6171C103.161 43.5834 103.123 43.55 103.102 43.5165C100.419 42.7526 99.5342 41.8921 99.4715 39.792C99.4524 39.1515 99.6507 38.4807 99.8655 37.8637C100.102 37.1851 100.579 36.6304 101.252 36.3243C101.85 36.0523 102.484 35.859 103.193 35.5972V32.6548C103.504 32.6313 103.73 32.6032 103.957 32.5997ZM103.133 36.9265C101.259 36.8791 100.727 38.5057 100.839 39.9002C100.895 40.6019 101.074 41.2988 101.66 41.7721C102.075 42.1076 102.545 42.3748 103.133 42.2244V36.9265ZM104.469 42.1802C105.685 42.2268 106.572 41.5661 106.721 40.4499C106.798 39.874 106.795 39.2708 106.718 38.6946C106.57 37.5786 105.713 36.9373 104.469 36.954V42.1802Z" fill="#1B2F4D"/>
<path fill-rule="evenodd" clip-rule="evenodd" d="M10.8447 35.7119C12.4691 35.7158 13.6417 36.6307 14.0247 38.1495C14.3654 39.5012 14.2597 40.7826 13.4913 41.9701C12.692 43.2055 11.4771 43.5766 10.103 43.3827C8.73395 43.1895 7.80486 42.4338 7.56471 40.9932C7.51486 40.6941 7.37952 40.4089 7.2758 40.0931H6.03437C5.78988 40.9244 5.97492 41.7876 5.91828 42.6345C5.88459 43.1372 5.56624 43.4533 5.11603 43.3411C4.83238 43.2704 4.53922 43.1759 4.544 42.7306C4.56834 40.4965 4.55497 38.2618 4.55497 35.9438C5.01755 35.9233 5.39273 35.9064 5.87895 35.8849V38.9061H7.34674C7.42296 38.6711 7.52713 38.3896 7.60534 38.1014C8.00667 36.6229 9.24252 35.7082 10.8447 35.7119ZM10.9292 36.8407C10.0103 36.7823 9.36774 37.1645 9.01187 38.0656C8.62575 39.0433 8.65188 40.0515 8.97898 41.0406C9.28236 41.9579 9.76237 42.2787 10.7279 42.2834C11.5918 42.2876 12.3222 41.8482 12.5698 41.0912C12.7255 40.615 12.8186 40.1749 12.8077 39.5704C12.7989 39.0783 12.7359 38.7492 12.633 38.3365C12.3981 37.3946 11.8203 36.8974 10.9292 36.8407Z" fill="#1B2F4D"/>
<path fill-rule="evenodd" clip-rule="evenodd" d="M38.962 35.9019C39.4874 35.8984 39.6379 36.1846 39.6352 36.6482C39.6282 37.8676 39.6341 39.0873 39.6346 40.3068C39.6348 40.8526 39.6346 41.3986 39.6346 42.0134C39.9042 42.0483 40.125 42.0757 40.3453 42.105C40.7157 42.1544 40.884 42.3456 40.8767 42.7367C40.8585 43.7121 40.8709 44.6882 40.8709 45.7271H39.761V43.2806H33.548V45.6566C33.2575 45.7096 33.0399 45.7686 32.8193 45.7847C32.5478 45.8045 32.3615 45.6864 32.3608 45.385C32.3585 44.4803 32.3392 43.5747 32.375 42.6713C32.3823 42.4866 32.5832 42.1692 32.7239 42.1524C33.6339 42.0444 33.8094 41.2919 34.0033 40.6623C34.3229 39.6247 34.5083 38.5452 34.7353 37.4804C34.8394 36.9919 34.9078 36.496 35.0094 35.9051C36.3666 35.9051 37.6644 35.9106 38.962 35.9019ZM36.1676 37.0441C35.7083 38.7106 35.7032 40.5165 34.565 42.1768H38.2061V37.0441H36.1676Z" fill="#1B2F4D"/>
<path fill-rule="evenodd" clip-rule="evenodd" d="M19.0627 35.8805C20.0326 35.3894 21.6184 35.9988 22.1221 37.1586C22.812 38.7476 22.8494 40.3603 22.0924 41.9203C21.3447 43.4612 19.5053 43.8648 18.096 42.8729C17.9492 42.7696 17.8064 42.6602 17.5569 42.477V45.9607H16.229V36.0644C16.8911 35.8824 17.2932 36.106 17.4356 36.7345C17.9676 36.4546 18.5115 36.1598 19.0627 35.8805ZM21.0619 38.1343C20.7212 36.8178 19.4601 36.4787 18.3785 37.3264C17.8329 37.754 17.3861 38.2306 17.5298 39.01C17.5648 39.2002 17.5349 39.4025 17.5349 39.7967C17.3809 40.5668 17.5781 41.3667 18.49 41.9306C19.529 42.573 20.4973 42.2894 20.9568 41.142C21.3529 40.1524 21.3164 39.118 21.0619 38.1343Z" fill="#1B2F4D"/>
<path fill-rule="evenodd" clip-rule="evenodd" d="M121.743 35.8777C122.798 35.339 124.406 36.1902 124.812 37.166C125.531 38.8929 125.521 40.5972 124.557 42.2231C123.881 43.3643 122.303 43.7536 121.141 43.1334C120.904 43.0072 120.693 42.8334 120.372 42.6145C120.303 42.9208 120.226 43.1234 120.218 43.3282C120.199 43.877 120.212 44.427 120.209 44.9765C120.205 45.7254 119.771 46.0451 118.907 45.9355V36.0046C119.58 35.924 119.983 36.166 120.113 36.7304C120.646 36.4512 121.192 36.1592 121.743 35.8777ZM123.591 37.8028C123.337 37.0851 122.56 36.7187 121.883 36.8797C120.803 37.1365 120.109 38.026 120.102 39.1635C120.101 39.437 120.141 39.7173 120.095 39.9828C119.916 41.0169 120.533 41.5838 121.308 42.038C122.173 42.5443 123.189 42.2476 123.572 41.3326C123.792 40.8067 123.849 40.2132 123.979 39.6504C123.85 39.0072 123.795 38.3789 123.591 37.8028Z" fill="#1B2F4D"/>
<path fill-rule="evenodd" clip-rule="evenodd" d="M58.655 37.5501C59.5827 35.4428 62.641 35.0866 64.0515 36.8557C64.6571 37.6154 64.7276 38.5085 64.6358 39.4124C64.5917 39.846 64.186 39.8826 63.8084 39.8794C62.8214 39.8711 61.834 39.8758 60.847 39.8756C60.4958 39.8755 60.1446 39.8756 59.7113 39.8756C59.6586 41.6309 60.299 42.338 61.8917 42.292C62.5073 42.2742 63.1243 42.1019 63.7271 41.948C63.961 41.8882 64.2063 41.724 64.3301 42.0005C64.4125 42.1845 64.3579 42.4567 64.2927 42.6674C64.2543 42.7914 64.0911 42.916 63.9561 42.9659C62.6374 43.4536 61.301 43.6827 59.9635 43.0524C59.2614 42.7215 58.7519 42.1672 58.515 41.4329C58.095 40.1305 58.0942 38.8242 58.655 37.5501ZM61.7054 36.8083C60.4087 36.7587 59.7835 37.3779 59.6862 38.8615H63.2531C63.2548 37.4002 62.8258 36.8512 61.7054 36.8083Z" fill="#1B2F4D"/>
<path fill-rule="evenodd" clip-rule="evenodd" d="M91.8328 35.7565C92.2496 35.7137 92.6834 35.867 93.1117 35.8904C93.5876 35.9164 93.8522 36.1218 93.8526 36.6073C93.8546 38.6526 93.858 40.6979 93.8488 42.7431C93.8472 43.0911 93.495 43.4338 93.1736 43.3556C92.8725 43.2821 92.4579 43.2741 92.4829 42.7399C92.5212 41.9209 92.4926 41.0988 92.4926 40.205C90.6858 40.106 90.4489 40.258 89.8149 41.8066C89.6818 42.1318 89.4728 42.4372 89.399 42.7732C89.3 43.223 88.9558 43.306 88.6225 43.3697C88.1306 43.4636 87.8252 43.1221 88.0208 42.6797C88.4603 41.6862 88.7312 40.5938 89.6821 39.8373C89.3634 39.6546 89.0718 39.5445 88.854 39.3523C87.9683 38.5703 88.1145 37.0763 89.1178 36.3978C89.941 35.8411 90.9055 35.852 91.8328 35.7565ZM91.3446 36.8244C91.1476 36.8264 90.948 36.8209 90.7539 36.8481C90.0409 36.9483 89.6436 37.3457 89.6169 37.966C89.5932 38.5216 89.907 38.9703 90.5888 39.1025C91.1856 39.2181 91.8134 39.1782 92.4597 39.2082V36.8238C92.0401 36.8238 91.6923 36.8211 91.3446 36.8244Z" fill="#1B2F4D"/>
<path fill-rule="evenodd" clip-rule="evenodd" d="M81.4469 36.1886C82.4788 35.75 83.5423 35.5251 84.6578 35.9099C85.377 36.158 85.8967 36.592 86.0476 37.3564C86.1376 37.8125 86.2064 38.2799 86.2153 38.7434C86.2384 39.9622 86.2262 41.1821 86.223 42.4013C86.2213 43.0492 86.054 43.3461 85.6568 43.3693C85.0799 43.403 85.1116 42.9311 85.0287 42.5858C84.5764 42.816 84.1327 43.0591 83.675 43.2713C82.595 43.7717 80.6977 43.0399 80.4995 41.8664C80.337 40.904 80.5464 40.044 81.3888 39.5288C81.9269 39.1998 82.5147 38.9727 83.1688 38.9804C83.7133 38.9868 84.2584 38.9817 84.8752 38.9817C84.8545 38.5219 84.8903 38.1679 84.8126 37.8407C84.6595 37.1959 84.2149 36.8174 83.5357 36.8446C82.9585 36.8677 82.3815 37.0215 81.8164 37.1642C81.5259 37.2376 81.2613 37.4131 80.971 37.5493C80.7753 36.5475 80.7783 36.4728 81.4469 36.1886ZM84.8771 39.9132C84.2612 39.9131 83.7859 39.8575 83.3313 39.9298C82.9243 39.9945 82.4798 40.1207 82.1589 40.3609C81.5289 40.8326 81.6733 41.887 82.3562 42.22C83.4216 42.7394 84.8584 41.8713 84.8771 40.696C84.8807 40.4703 84.8771 40.2444 84.8771 39.9132Z" fill="#1B2F4D"/>
<path fill-rule="evenodd" clip-rule="evenodd" d="M138.706 36.216C139.768 35.7273 140.875 35.5449 142.015 35.9233C142.686 36.1462 143.177 36.5849 143.34 37.2936C143.436 37.7082 143.513 38.1367 143.519 38.5601C143.54 40.0488 143.527 41.5383 143.527 43.1027C142.856 43.2206 142.456 43.0474 142.326 42.5838C141.881 42.8123 141.449 43.0873 140.979 43.2648C139.616 43.7801 138.139 43.0694 137.792 41.7645C137.552 40.8633 137.907 39.9212 138.773 39.4838C139.283 39.2266 139.873 39.0861 140.443 39.0008C140.977 38.9211 141.531 38.9835 142.159 38.9835C142.159 38.5872 142.204 38.2784 142.15 37.9874C142.01 37.2206 141.553 36.8854 140.761 36.8182C139.85 36.7409 139.109 37.2163 138.315 37.5267C138.037 36.5955 138.043 36.5213 138.706 36.216ZM142.178 39.9175C141.562 39.9175 141.054 39.8677 140.561 39.9336C140.19 39.9832 139.786 40.1099 139.49 40.3275C138.811 40.8271 138.973 41.9475 139.726 42.252C140.874 42.7156 142.164 41.8612 142.178 40.6274C142.18 40.436 142.178 40.2445 142.178 39.9175Z" fill="#1B2F4D"/>
</g>
<defs>
<clipPath id="clip0_9854_5195">
<rect width="315" height="48.6487" fill="white"/>
</clipPath>
</defs>
</svg>
