<svg width="100" height="16" viewBox="0 0 100 16" fill="none" xmlns="http://www.w3.org/2000/svg">
<path d="M93.4316 9.72088C93.493 9.1171 93.7386 8.63408 94.1069 8.21144C94.4752 7.7888 94.9049 7.60767 95.396 7.60767C96.5624 7.60767 97.1149 8.3322 97.1149 9.72088H93.4316ZM100 10.3246C100 8.87559 99.5704 7.72842 98.7723 6.82276C97.9743 5.97748 96.8693 5.55484 95.396 5.55484C93.9841 5.55484 92.8178 6.03786 91.8356 7.0039C90.8534 7.96993 90.3623 9.23786 90.3623 10.9284C90.3623 12.4982 90.792 13.7662 91.7128 14.6114C92.6336 15.5171 93.8614 15.9397 95.4574 15.9397C96.9307 15.9397 98.1585 15.6982 99.0793 15.2152V13.0416C98.2198 13.585 97.299 13.8265 96.1941 13.8265C94.4752 13.8265 93.5544 13.102 93.4316 11.653H100V10.3246ZM89.7484 12.8605C89.0117 13.3435 88.2751 13.585 87.4771 13.585C86.6176 13.585 85.9424 13.3435 85.4513 12.8605C84.9602 12.3775 84.7146 11.653 84.7146 10.8077C84.7146 9.90201 84.9602 9.17748 85.5127 8.69446C86.0038 8.21144 86.7404 7.90956 87.5998 7.90956C88.3979 7.90956 89.1345 8.15106 89.7484 8.63408V6.03786C89.1959 5.73597 88.3365 5.55484 87.1701 5.55484C85.4513 5.55484 84.1008 6.03786 83.0572 7.0039C82.0136 7.96993 81.5225 9.29824 81.5225 10.9888C81.5225 12.4379 82.0136 13.6454 82.9344 14.5511C83.9166 15.4567 85.1443 15.9397 86.679 15.9397C88.0295 15.9397 89.0118 15.7586 89.687 15.336V12.8605H89.7484ZM77.0412 13.1624C76.6729 13.585 76.1818 13.7662 75.6293 13.7662C75.1996 13.7662 74.8927 13.6454 74.6471 13.4039C74.4016 13.1624 74.2788 12.9209 74.2788 12.5586C74.2788 11.7737 74.7699 11.3511 75.8135 11.2303L77.6551 10.9888V11.653C77.5937 12.2567 77.4095 12.8001 77.0412 13.1624ZM80.5403 9.78125C80.5403 6.94352 79.1284 5.55484 76.2432 5.55484C75.6293 5.55484 74.954 5.61522 74.2174 5.79635C73.4808 5.97748 72.8669 6.15861 72.4372 6.40012V8.69446C73.5421 7.96993 74.6471 7.66805 75.8749 7.66805C77.0412 7.66805 77.6551 8.21144 77.6551 9.29823L74.954 9.6605C72.6213 9.96239 71.5164 11.0492 71.5164 12.9813C71.5164 13.8869 71.8233 14.6114 72.3758 15.1548C72.9283 15.6982 73.7263 16.0001 74.6471 16.0001C75.9362 16.0001 76.9798 15.4567 77.6551 14.3699H77.7165V15.6982H80.6631V9.78125H80.5403ZM70.35 1.08691H67.2806V15.6982H70.35V1.08691ZM60.4666 4.22654C62.1241 4.22654 62.9835 4.95107 62.9835 6.33974C62.9835 7.7888 62.1241 8.51333 60.4666 8.51333H59.2389V4.22654H60.4666ZM60.7122 10.9284C62.431 10.9284 63.7815 10.5058 64.7637 9.6605C65.8073 8.81522 66.2984 7.66805 66.2984 6.27937C66.2984 3.32088 64.5182 1.87182 60.9577 1.87182H55.9854V15.6982H59.1775V10.9284H60.7122Z" fill="white"/>
<path d="M44.9355 9.4795C44.9969 8.87572 45.2424 8.3927 45.6108 7.97006C45.9791 7.54742 46.4088 7.36629 46.8999 7.36629C48.0663 7.36629 48.6187 8.09082 48.6187 9.4795H44.9355ZM51.5039 10.0833C51.5039 8.63421 51.0742 7.48704 50.2762 6.58138C49.4782 5.7361 48.3732 5.31346 46.8999 5.31346C45.488 5.31346 44.3216 5.79648 43.3394 6.76251C42.3572 7.72855 41.8661 8.99648 41.8661 10.687C41.8661 12.2569 42.2958 13.5248 43.2167 14.3701C44.1375 15.2757 45.3652 15.6984 46.9613 15.6984C48.4346 15.6984 49.6623 15.4569 50.5831 14.9738V12.8003C49.7237 13.3436 48.8029 13.5852 47.6979 13.5852C45.9791 13.5852 45.0583 12.8606 44.9355 11.4116H51.5039V10.0833ZM40.8225 9.35874C40.8225 6.64176 39.6562 5.31346 37.3849 5.31346C36.0957 5.31346 35.0521 5.85685 34.3155 7.00402H34.2541V0.785156H31.1847V15.3965H34.2541V9.78138C34.2541 9.17761 34.4383 8.63421 34.7452 8.21157C35.1135 7.78893 35.5432 7.6078 36.0957 7.6078C37.1393 7.6078 37.6918 8.33233 37.6918 9.78138V15.3965H40.7612V9.35874H40.8225ZM30.2639 13.0418C29.8956 13.2229 29.5887 13.3436 29.2817 13.3436C28.4223 13.3436 28.054 12.8003 28.054 11.7738V7.78893H30.3253V5.55497H28.054V2.5361L24.9846 3.38138V5.49459H23.3271V7.72855H24.9846V12.2569C24.9846 14.4908 26.0896 15.5776 28.2381 15.5776C29.1589 15.5776 29.8342 15.4569 30.3253 15.2153V13.0418H30.2639Z" fill="white"/>
<path d="M6.99814 1.50977H1.53467V6.88335" stroke="#E41F1A" stroke-width="4" stroke-miterlimit="10"/>
<path d="M9.33105 1.50977H14.6644V6.88335" stroke="#E41F1A" stroke-width="4" stroke-miterlimit="10"/>
<path d="M6.99814 14.4908H1.53467V9.11719" stroke="#E41F1A" stroke-width="4" stroke-miterlimit="10"/>
<path d="M9.33105 14.4908H14.6644V9.11719" stroke="#E41F1A" stroke-width="4" stroke-miterlimit="10"/>
</svg>
